<svg xmlns="http://www.w3.org/2000/svg" width="17.42" height="18.753" viewBox="0 0 17.42 18.753"><g transform="translate(-6.288 -5.2)"><path d="M19.663,26.252h-9.33a2.317,2.317,0,0,1-2.3-2.061l-.939-9.607A.533.533,0,0,1,7.621,14H22.375a.533.533,0,0,1,.53.584l-.939,9.607A2.317,2.317,0,0,1,19.663,26.252Z" transform="translate(0 -3.099)" fill="none" stroke="#fff" stroke-linecap="round" stroke-linejoin="round" stroke-width="1.6"/><path d="M14.494,13.78l.31-2.634.33-2.966A2.45,2.45,0,0,1,17.569,6h.6A2.45,2.45,0,0,1,20.6,8.18l.33,2.966.31,2.634" transform="translate(-2.869)" fill="none" stroke="#fff" stroke-linecap="round" stroke-linejoin="round" stroke-width="1.6"/></g></svg>