<?xml version="1.0" encoding="utf-8"?>
<!-- Generator: Adobe Illustrator 24.1.2, SVG Export Plug-In . SVG Version: 6.00 Build 0)  -->
<svg version="1.1" id="Calque_1" xmlns="http://www.w3.org/2000/svg" xmlns:xlink="http://www.w3.org/1999/xlink" x="0px" y="0px"
	 viewBox="0 0 100 100" style="enable-background:new 0 0 100 100;" xml:space="preserve">
<style type="text/css">
	.st0{fill:#373E48;}
</style>
<path id="rect4546" class="st0" d="M24.43,4l-4.09,2.45v11.23l4.09,2.45h2.65v32.89h-9.03l-4.08,3.44v33.45h4.19
	c0.25,3.39,3.2,6.08,6.81,6.08c3.61,0,6.56-2.69,6.81-6.08h34.45C66.5,93.31,69.46,96,73.08,96c3.61,0,6.56-2.69,6.81-6.08h3.01
	l4.56-3.98v-7.01l-4.56-3.96h-6.28v-2.45V71.1V45.07H41.96V71.1v1.41v2.45h-6.04V4.01h-7.87V4L24.43,4L24.43,4z M53.02,49.91h12.53
	v2.98H53.02V49.91z M16.14,58.95h3.88v4.4h-3.88V58.95z M16.14,64.91h3.88v2.31h-3.88V64.91z M52.61,72.51h13.35l0.66,2.45H51.94
	L52.61,72.51z M43.66,80.95h3.2l-6.41,6.69h-3.2L43.66,80.95L43.66,80.95z M50.05,80.95h3.2l-6.39,6.69h-3.2L50.05,80.95
	L50.05,80.95z M56.46,80.95h3.2l-6.41,6.69h-3.2L56.46,80.95z M24.98,87.17c1.33,0,2.4,1.02,2.4,2.29s-1.07,2.3-2.4,2.3
	c-1.33,0-2.4-1.03-2.4-2.3C22.59,88.19,23.66,87.17,24.98,87.17z M73.08,87.17c1.33,0,2.4,1.02,2.4,2.29s-1.07,2.3-2.4,2.3
	c-1.33,0-2.4-1.03-2.4-2.3C70.68,88.19,71.75,87.17,73.08,87.17z"/>
<path id="rect4546_1_" class="st0" d="M22.43,4l-4.09,2.45v11.23l4.09,2.45h2.65v32.89h-9.03l-4.08,3.44v33.45h4.19
	c0.25,3.39,3.2,6.08,6.81,6.08c3.61,0,6.56-2.69,6.81-6.08h34.45C64.5,93.31,67.46,96,71.08,96c3.61,0,6.56-2.69,6.81-6.08h3.01
	l4.56-3.98v-7.01l-4.56-3.96h-6.28v-2.45V71.1V45.07H39.96V71.1v1.41v2.45h-6.04V4.01h-7.87V4L22.43,4L22.43,4z M51.02,49.91h12.53
	v2.98H51.02V49.91z M14.14,58.95h3.88v4.4h-3.88V58.95z M14.14,64.91h3.88v2.31h-3.88V64.91z M50.61,72.51h13.35l0.66,2.45H49.94
	L50.61,72.51z M41.66,80.95h3.2l-6.41,6.69h-3.2L41.66,80.95L41.66,80.95z M48.05,80.95h3.2l-6.39,6.69h-3.2L48.05,80.95
	L48.05,80.95z M54.46,80.95h3.2l-6.41,6.69h-3.2L54.46,80.95z M22.98,87.17c1.33,0,2.4,1.02,2.4,2.29s-1.07,2.3-2.4,2.3
	c-1.33,0-2.4-1.03-2.4-2.3C20.59,88.19,21.66,87.17,22.98,87.17z M71.08,87.17c1.33,0,2.4,1.02,2.4,2.29s-1.07,2.3-2.4,2.3
	c-1.33,0-2.4-1.03-2.4-2.3C68.68,88.19,69.75,87.17,71.08,87.17z"/>
</svg>
