<svg xmlns="http://www.w3.org/2000/svg" width="33.602" height="37.539" viewBox="0 0 33.602 37.539"><g transform="translate(-2.294 -0.098)"><ellipse cx="8" cy="2.5" rx="8" ry="2.5" transform="translate(3.094 5.898)" stroke-width="1.6" stroke="#fff" stroke-linecap="round" stroke-linejoin="round" fill="none"/><path d="M3.094,14.085c0,1.38,3.582,2.5,8,2.5s8-1.12,8-2.5" transform="translate(0 -0.686)" fill="none" stroke="#fff" stroke-linecap="round" stroke-linejoin="round" stroke-width="1.6"/><line y2="5.188" transform="translate(3.094 8.398)" stroke-width="1.6" stroke="#fff" stroke-linecap="round" stroke-linejoin="round" fill="none"/><line y2="5.188" transform="translate(19.095 8.398)" stroke-width="1.6" stroke="#fff" stroke-linecap="round" stroke-linejoin="round" fill="none"/><path d="M3.094,19.359c0,1.336,3.351,2.427,7.569,2.5" transform="translate(0 -0.961)" fill="none" stroke="#fff" stroke-linecap="round" stroke-linejoin="round" stroke-width="1.6"/><line y2="5.188" transform="translate(3.094 13.398)" stroke-width="1.6" stroke="#fff" stroke-linecap="round" stroke-linejoin="round" fill="none"/><path d="M3.094,24.634c0,1.083,2.2,2,5.285,2.352" transform="translate(0 -1.235)" fill="none" stroke="#fff" stroke-linecap="round" stroke-linejoin="round" stroke-width="1.6"/><line y2="5.188" transform="translate(3.094 18.398)" stroke-width="1.6" stroke="#fff" stroke-linecap="round" stroke-linejoin="round" fill="none"/><path d="M36.437,19.359c0,1.336-3.351,2.427-7.569,2.5" transform="translate(-1.342 -0.961)" fill="none" stroke="#fff" stroke-linecap="round" stroke-linejoin="round" stroke-width="1.6"/><line y2="5.188" transform="translate(35.096 13.398)" stroke-width="1.6" stroke="#fff" stroke-linecap="round" stroke-linejoin="round" fill="none"/><path d="M36.563,24.634c0,1.083-2.2,2-5.285,2.352" transform="translate(-1.467 -1.235)" fill="none" stroke="#fff" stroke-linecap="round" stroke-linejoin="round" stroke-width="1.6"/><line y2="5.188" transform="translate(35.096 18.398)" stroke-width="1.6" stroke="#fff" stroke-linecap="round" stroke-linejoin="round" fill="none"/><path d="M19.973,14.085c0,1.38,3.582,2.5,8,2.5s8-1.12,8-2.5" transform="translate(-0.879 -0.686)" fill="none" stroke="#fff" stroke-linecap="round" stroke-linejoin="round" stroke-width="1.6"/><line y2="5.188" transform="translate(19.095 8.398)" stroke-width="1.6" stroke="#fff" stroke-linecap="round" stroke-linejoin="round" fill="none"/><line y2="5.188" transform="translate(35.095 8.398)" stroke-width="1.6" stroke="#fff" stroke-linecap="round" stroke-linejoin="round" fill="none"/><ellipse cx="8" cy="2.5" rx="8" ry="2.5" transform="translate(19.095 0.898)" stroke-width="1.6" stroke="#fff" stroke-linecap="round" stroke-linejoin="round" fill="none"/><path d="M19.973,8.81c0,1.38,3.582,2.5,8,2.5s8-1.12,8-2.5" transform="translate(-0.879 -0.412)" fill="none" stroke="#fff" stroke-linecap="round" stroke-linejoin="round" stroke-width="1.6"/><line y2="5.188" transform="translate(19.095 3.398)" stroke-width="1.6" stroke="#fff" stroke-linecap="round" stroke-linejoin="round" fill="none"/><line y2="5.188" transform="translate(35.095 3.398)" stroke-width="1.6" stroke="#fff" stroke-linecap="round" stroke-linejoin="round" fill="none"/><line y2="3.731" transform="translate(19.095 13.398)" stroke-width="1.6" stroke="#fff" stroke-linecap="round" stroke-linejoin="round" fill="none"/><circle cx="8.432" cy="8.432" r="8.432" transform="translate(10.663 19.973)" fill="none" stroke="#fff" stroke-linecap="round" stroke-linejoin="round" stroke-width="1.6"/><g transform="translate(15.605 24.255)"><path d="M20.625,30.8H18.648a2.144,2.144,0,0,0,.485,1.444,1.7,1.7,0,0,0,1.3.478,3.446,3.446,0,0,0,1.138-.183l.155,1.133a5.858,5.858,0,0,1-1.377.161,3.062,3.062,0,0,1-2.239-.8,3.126,3.126,0,0,1-.861-2.232h-.956V30.02h.956v-.711h-.956v-.783h.961A2.9,2.9,0,0,1,20.4,25.538a5.926,5.926,0,0,1,1.328.173l-.155,1.138a3.547,3.547,0,0,0-1.128-.189,1.686,1.686,0,0,0-1.288.477,2.134,2.134,0,0,0-.5,1.389h1.972v.783H18.648v.711h1.977Z" transform="translate(-16.292 -25.538)" fill="#fff"/></g></g></svg>