<?xml version="1.0" encoding="utf-8"?>
<!-- Generator: Adobe Illustrator 24.1.2, SVG Export Plug-In . SVG Version: 6.00 Build 0)  -->
<svg version="1.1" id="Calque_1" xmlns="http://www.w3.org/2000/svg" xmlns:xlink="http://www.w3.org/1999/xlink" x="0px" y="0px"
	 viewBox="0 0 100 100" style="enable-background:new 0 0 100 100;" xml:space="preserve">
<g>
	<path d="M61.18,34.99v-7.34c0,0-7.5-0.07-8.01-0.07c-3.39,0-8.27,3.86-8.27,8.23c0,4.93,0,7.86,0,7.86h-7.03V52h6.93v20.67h8.2
		V51.91h7.25l0.92-8.14H53.1c0,0,0-5,0-5.98c0-1.44,1.08-2.84,2.7-2.84C56.89,34.95,61.18,34.99,61.18,34.99z"/>
	<path d="M77.87,87.65H21.19c-5.07,0-9.19-4.12-9.19-9.19V21.79c0-5.07,4.12-9.19,9.19-9.19h56.68c5.07,0,9.19,4.12,9.19,9.19v56.68
		C87.05,83.53,82.93,87.65,77.87,87.65z M21.19,15.77c-3.32,0-6.02,2.7-6.02,6.02v56.68c0,3.32,2.7,6.02,6.02,6.02h56.68
		c3.32,0,6.02-2.7,6.02-6.02V21.79c0-3.32-2.7-6.02-6.02-6.02H21.19z"/>
</g>
</svg>
