<svg xmlns="http://www.w3.org/2000/svg" width="16" height="38.1" viewBox="0 0 16 38.1"><g transform="translate(-0.05 -0.05)"><path d="M11.26,5.45H3.2V2.72A1.777,1.777,0,0,1,5.02.9H9.31a1.777,1.777,0,0,1,1.82,1.82V5.45Z" transform="translate(0.69)" fill="none" stroke="#5ead6f" stroke-linecap="round" stroke-linejoin="round" stroke-miterlimit="10" stroke-width="1.7"/><path d="M10.39,4.6s1.95,3.64,3.38,6.11a11.309,11.309,0,0,1,1.43,4.94V34.24a2,2,0,0,1-1.95,1.95H2.85A2,2,0,0,1,.9,34.24V15.65a11.309,11.309,0,0,1,1.43-4.94C3.63,8.24,5.71,4.6,5.71,4.6" transform="translate(0 1.11)" fill="none" stroke="#5ead6f" stroke-linecap="round" stroke-linejoin="round" stroke-miterlimit="10" stroke-width="1.7"/><path d="M4.3,30.37V14.51S4.17,12.56,6.12,9.7" transform="translate(1.02 2.64)" fill="none" stroke="#5ead6f" stroke-linecap="round" stroke-linejoin="round" stroke-miterlimit="10" stroke-width="1.7"/></g></svg>