<svg xmlns="http://www.w3.org/2000/svg" xmlns:xlink="http://www.w3.org/1999/xlink" width="80" height="80" viewBox="0 0 80 80"><defs><radialGradient id="a" cx="0.5" cy="0.5" r="0.682" gradientTransform="translate(-0.094 0.116) rotate(-12.139)" gradientUnits="objectBoundingBox"><stop offset="0" stop-color="#21387c"/><stop offset="1" stop-color="#15265a"/></radialGradient></defs><g transform="translate(-303 -1771)"><circle cx="40" cy="40" r="40" transform="translate(303 1771)" fill="url(#a)"/><g transform="translate(467.8 1735.79)"><path d="M-103.848,92.691h-1.571V62.259a1.049,1.049,0,0,0-1.048-1.049H-111.7a1.049,1.049,0,0,0-1.048,1.049V92.691H-115.9V68.818a1.049,1.049,0,0,0-1.048-1.049h-5.238a1.049,1.049,0,0,0-1.048,1.049V92.691h-3.143v-16a1.049,1.049,0,0,0-1.048-1.049h-5.238a1.049,1.049,0,0,0-1.048,1.049v16h-3.143V72.753A1.049,1.049,0,0,0-137.9,71.7h-5.238a1.049,1.049,0,0,0-1.048,1.049V92.691h-1.571a1.049,1.049,0,0,0-1.048,1.049,1.05,1.05,0,0,0,1.048,1.049h41.9a1.05,1.05,0,0,0,1.048-1.049A1.049,1.049,0,0,0-103.848,92.691Zm-38.238,0V73.8h3.143V92.691Zm10.476,0V77.738h3.143V92.691Zm10.476,0V69.867h3.143V92.691Zm10.476,0V63.309h3.143V92.691Z" transform="translate(0 2.42)" fill="#fff"/><path d="M-141.131,70.924a3.664,3.664,0,0,0,2.918-1.46l3.92,1.444c-.005.078-.024.154-.024.234a3.662,3.662,0,0,0,3.669,3.646,3.662,3.662,0,0,0,3.669-3.646,3.566,3.566,0,0,0-.239-1.256l4.879-3.638a3.653,3.653,0,0,0,2.174.724,3.662,3.662,0,0,0,3.669-3.646,3.566,3.566,0,0,0-.143-.951l4.537-2.8a3.654,3.654,0,0,0,2.42.927,3.662,3.662,0,0,0,3.669-3.647,3.662,3.662,0,0,0-3.669-3.647,3.662,3.662,0,0,0-3.669,3.647,3.565,3.565,0,0,0,.143.95l-4.538,2.8a3.652,3.652,0,0,0-2.419-.926,3.662,3.662,0,0,0-3.669,3.647,3.6,3.6,0,0,0,.237,1.254l-4.879,3.638a3.647,3.647,0,0,0-2.173-.724,3.662,3.662,0,0,0-2.917,1.459l-3.921-1.446c.005-.078.024-.152.024-.232a3.662,3.662,0,0,0-3.669-3.647,3.662,3.662,0,0,0-3.669,3.647A3.662,3.662,0,0,0-141.131,70.924Zm31.451-15.63a1.569,1.569,0,0,1,1.573,1.563,1.569,1.569,0,0,1-1.573,1.563,1.569,1.569,0,0,1-1.573-1.563A1.569,1.569,0,0,1-109.679,55.294Zm-10.484,6.469a1.569,1.569,0,0,1,1.573,1.564,1.569,1.569,0,0,1-1.573,1.563,1.569,1.569,0,0,1-1.573-1.563A1.569,1.569,0,0,1-120.163,61.763Zm-10.484,7.815a1.569,1.569,0,0,1,1.573,1.564,1.569,1.569,0,0,1-1.573,1.563,1.569,1.569,0,0,1-1.573-1.563A1.569,1.569,0,0,1-130.647,69.578Zm-10.484-3.864a1.569,1.569,0,0,1,1.573,1.563,1.569,1.569,0,0,1-1.573,1.563,1.569,1.569,0,0,1-1.573-1.563A1.569,1.569,0,0,1-141.131,65.714Z" transform="translate(0.605)" fill="#fff"/></g></g></svg>