<svg xmlns="http://www.w3.org/2000/svg" xmlns:xlink="http://www.w3.org/1999/xlink" width="80" height="80" viewBox="0 0 80 80"><defs><radialGradient id="a" cx="0.5" cy="0.5" r="0.682" gradientTransform="translate(-0.094 0.116) rotate(-12.139)" gradientUnits="objectBoundingBox"><stop offset="0" stop-color="#21387c"/><stop offset="1" stop-color="#15265a"/></radialGradient></defs><g transform="translate(-303 -1771)"><circle cx="40" cy="40" r="40" transform="translate(303 1771)" fill="url(#a)"/><g transform="translate(313.772 1780.49)"><path d="M26.428,14.822l9.758,12.4,5.31-4.569L32.49,10.96Z" transform="translate(13.734 4.487)" fill="none" stroke="#fff" stroke-linecap="round" stroke-linejoin="round" stroke-width="1.6"/><path d="M19.558,14.816,8.845,27.867,3.536,23.3,13.5,10.96Z" transform="translate(0 4.487)" fill="none" stroke="#fff" stroke-linecap="round" stroke-linejoin="round" stroke-width="1.6"/><path d="M27.978,48.054,29,48.873a2.673,2.673,0,0,0,3.781-3.781l0,0a2.673,2.673,0,0,0,3.781-3.781l0,0a2.673,2.673,0,0,0,3.781-3.781l0,0a2.673,2.673,0,1,0,3.781-3.781l3.8-7.958-9.758-12.4h-7.9L24.1,15.157,17.567,13.37,6.854,26.421,12,33.357" transform="translate(1.991 5.932)" fill="none" stroke="#fff" stroke-linecap="round" stroke-linejoin="round" stroke-width="1.6"/><path d="M19.964,14.487l-2.309.909s-3.361,5.845-3.9,6.953" transform="translate(6.131 6.603)" fill="none" stroke="#fff" stroke-linecap="round" stroke-linejoin="round" stroke-width="1.6"/><path d="M13.871,20.228a2.659,2.659,0,0,0,4.7,2.488c.365-.739,2.528-4.694,2.528-4.694l5.907.421,13.1,12.505" transform="translate(6.015 8.723)" fill="none" stroke="#fff" stroke-linecap="round" stroke-linejoin="round" stroke-width="1.6"/><line x1="6.917" y1="6.923" transform="translate(35.422 36.529)" stroke-width="1.6" stroke="#fff" stroke-linecap="round" stroke-linejoin="round" fill="none"/><line x1="4.584" y1="4.668" transform="translate(33.971 42.569)" stroke-width="1.6" stroke="#fff" stroke-linecap="round" stroke-linejoin="round" fill="none"/><line x1="2.615" y1="2.707" transform="translate(32.152 48.318)" stroke-width="1.6" stroke="#fff" stroke-linecap="round" stroke-linejoin="round" fill="none"/><rect width="5.424" height="6.733" rx="2.712" transform="translate(16.414 36.867) rotate(45)" stroke-width="1.6" stroke="#fff" stroke-linecap="round" stroke-linejoin="round" fill="none"/><rect width="5.424" height="6.733" rx="2.712" transform="translate(27.92 48.372) rotate(45)" stroke-width="1.6" stroke="#fff" stroke-linecap="round" stroke-linejoin="round" fill="none"/><rect width="5.424" height="8.42" rx="2.712" transform="matrix(0.707, 0.707, -0.707, 0.707, 20.846, 40.105)" stroke-width="1.6" stroke="#fff" stroke-linecap="round" stroke-linejoin="round" fill="none"/><rect width="5.424" height="8.42" rx="2.712" transform="matrix(0.707, 0.707, -0.707, 0.707, 24.681, 43.94)" stroke-width="1.6" stroke="#fff" stroke-linecap="round" stroke-linejoin="round" fill="none"/><line y1="8.074" transform="translate(29.383 8.2)" stroke-width="1.6" stroke="#fff" stroke-linecap="round" stroke-linejoin="round" fill="none"/><line y1="8.699" x2="8.699" transform="translate(34.331 7.266)" stroke-width="1.6" stroke="#fff" stroke-linecap="round" stroke-linejoin="round" fill="none"/><line x1="8.699" y1="8.699" transform="translate(15.736 7.266)" stroke-width="1.6" stroke="#fff" stroke-linecap="round" stroke-linejoin="round" fill="none"/><line x1="0.012" y1="0.496" transform="translate(29.399 3.482)" stroke-width="1.6" stroke="#fff" stroke-linecap="round" stroke-linejoin="round" fill="none"/></g></g></svg>