<svg xmlns="http://www.w3.org/2000/svg" width="15.9" height="15.9" viewBox="0 0 15.9 15.9"><g transform="translate(0 0.1)"><path d="M7.922,1.371c2.094,0,2.377,0,3.225.057a4.667,4.667,0,0,1,1.471.283,3.532,3.532,0,0,1,.905.566,2.215,2.215,0,0,1,.566.905,4.667,4.667,0,0,1,.283,1.471c.057.849.057,1.075.057,3.225s0,2.377-.057,3.225a4.667,4.667,0,0,1-.283,1.471,3.532,3.532,0,0,1-.566.905,2.215,2.215,0,0,1-.905.566,4.667,4.667,0,0,1-1.471.283c-.849.057-1.075.057-3.225.057s-2.377,0-3.225-.057a4.667,4.667,0,0,1-1.471-.283,3.532,3.532,0,0,1-.905-.566,2.215,2.215,0,0,1-.566-.905A4.667,4.667,0,0,1,1.471,11.1c-.057-.849-.057-1.075-.057-3.225s0-2.377.057-3.225a5.083,5.083,0,0,1,.283-1.471,3.532,3.532,0,0,1,.566-.905,2.215,2.215,0,0,1,.905-.566A5.083,5.083,0,0,1,4.7,1.428c.849-.057,1.132-.057,3.225-.057m0-1.415c-2.15,0-2.433,0-3.282.057a7.388,7.388,0,0,0-1.924.34A5.45,5.45,0,0,0,1.3,1.258,5.45,5.45,0,0,0,.4,2.673,7.388,7.388,0,0,0,.057,4.6C0,5.445,0,5.728,0,7.878s0,2.433.057,3.282a5.453,5.453,0,0,0,.4,1.924A4.289,4.289,0,0,0,1.358,14.5a3.541,3.541,0,0,0,1.415.905,7.107,7.107,0,0,0,1.924.4H7.922c2.15,0,2.433,0,3.282-.057a5.453,5.453,0,0,0,1.924-.4,4.289,4.289,0,0,0,1.415-.905,3.541,3.541,0,0,0,.905-1.415,7.107,7.107,0,0,0,.4-1.924c.057-.849.057-1.132.057-3.282s0-2.433-.057-3.282a5.453,5.453,0,0,0-.4-1.924A4.289,4.289,0,0,0,14.542,1.2,3.541,3.541,0,0,0,13.127.3,7.107,7.107,0,0,0,11.2-.1c-.849.057-1.132.057-3.282.057Z" fill="#f8f7f8"/><path d="M10.874,6.8a4.074,4.074,0,1,0,4.074,4.074A4.057,4.057,0,0,0,10.874,6.8Zm0,6.733a2.659,2.659,0,1,1,2.659-2.659A2.656,2.656,0,0,1,10.874,13.533Z" transform="translate(-2.952 -2.996)" fill="#f8f7f8"/><circle cx="0.962" cy="0.962" r="0.962" transform="translate(11.204 2.673)" fill="#f8f7f8"/></g></svg>