<?xml version="1.0" encoding="utf-8"?>
<!-- Generator: Adobe Illustrator 24.1.2, SVG Export Plug-In . SVG Version: 6.00 Build 0)  -->
<svg version="1.1" id="Calque_1" xmlns="http://www.w3.org/2000/svg" xmlns:xlink="http://www.w3.org/1999/xlink" x="0px" y="0px"
	 viewBox="0 0 100 100" style="enable-background:new 0 0 100 100;" xml:space="preserve">
<style type="text/css">
	.st0{fill:#343233;}
</style>
<g>
	<g>
		<g>
			<g>
				<g>
					<path class="st0" d="M53.45,67.54H42.2c-5.01,0-9.09-4.08-9.09-9.09V47.2c0-5.01,4.08-9.09,9.09-9.09h11.25
						c5.01,0,9.09,4.08,9.09,9.09v11.25C62.54,63.47,58.47,67.54,53.45,67.54z M42.2,41.39c-3.2,0-5.81,2.61-5.81,5.81v11.25
						c0,3.2,2.61,5.81,5.81,5.81h11.25c3.2,0,5.81-2.61,5.81-5.81V47.2c0-3.2-2.61-5.81-5.81-5.81H42.2z"/>
				</g>
			</g>
			<g>
				<g>
					<path class="st0" d="M47.83,60.35c-4.15,0-7.52-3.38-7.52-7.52s3.37-7.52,7.52-7.52c4.15,0,7.52,3.38,7.52,7.52
						S51.97,60.35,47.83,60.35z M47.83,48.26c-2.52,0-4.57,2.05-4.57,4.57c0,2.52,2.05,4.57,4.57,4.57c2.52,0,4.57-2.05,4.57-4.57
						C52.4,50.31,50.35,48.26,47.83,48.26z"/>
				</g>
			</g>
			<g>
				<path class="st0" d="M57,44.87c0,0.7-0.57,1.27-1.27,1.27s-1.27-0.57-1.27-1.27c0-0.7,0.57-1.27,1.27-1.27S57,44.16,57,44.87z"
					/>
			</g>
		</g>
	</g>
	<path class="st0" d="M69.6,81.65H26.06c-3.89,0-7.06-3.17-7.06-7.06V31.06c0-3.89,3.17-7.06,7.06-7.06H69.6
		c3.89,0,7.06,3.17,7.06,7.06V74.6C76.65,78.49,73.49,81.65,69.6,81.65z M26.06,26.43c-2.55,0-4.62,2.07-4.62,4.62V74.6
		c0,2.55,2.07,4.62,4.62,4.62H69.6c2.55,0,4.62-2.07,4.62-4.62V31.06c0-2.55-2.07-4.62-4.62-4.62H26.06z"/>
</g>
</svg>
