<?xml version="1.0" encoding="utf-8"?>
<!-- Generator: Adobe Illustrator 24.1.2, SVG Export Plug-In . SVG Version: 6.00 Build 0)  -->
<svg version="1.1" id="Calque_1" xmlns="http://www.w3.org/2000/svg" xmlns:xlink="http://www.w3.org/1999/xlink" x="0px" y="0px"
	 viewBox="0 0 100 100" style="enable-background:new 0 0 100 100;" xml:space="preserve">
<style type="text/css">
	.st0{fill:#FFFF00;}
	.st1{fill:none;stroke:#2E2D2C;stroke-width:2.5837;stroke-linecap:round;stroke-linejoin:round;stroke-miterlimit:10;}
	.st2{fill:#FFFFFF;}
</style>
<circle class="st0" cx="49.5" cy="49.5" r="48.5"/>
<g>
	<g>
		<g>
			<line class="st1" x1="73.67" y1="48.32" x2="27.03" y2="48.32"/>
			<line class="st1" x1="66.84" y1="31.83" x2="33.86" y2="64.81"/>
			<line class="st1" x1="50.35" y1="25" x2="50.35" y2="71.22"/>
			<line class="st1" x1="33.86" y1="31.83" x2="66.84" y2="64.81"/>
			<g>
				<path class="st2" d="M45.14,74.26c-0.89,0-1.62-0.72-1.62-1.62v-8.36c0-2.4-1.25-3.96-2.84-5.94c-1.95-2.44-4.17-5.2-4.17-10.01
					c0-7.63,6.2-13.83,13.83-13.83c7.63,0,13.83,6.21,13.83,13.83c0,4.81-2.22,7.57-4.17,10.01c-1.59,1.98-2.84,3.54-2.84,5.94v8.36
					c0,0.89-0.72,1.62-1.62,1.62H45.14z"/>
				<path class="st2" d="M50.35,36.12c6.75,0,12.22,5.47,12.22,12.22c0,8-7.01,9.64-7.01,15.95v8.36H45.14v-8.36
					c0-6.31-7.01-7.95-7.01-15.95C38.13,41.59,43.6,36.12,50.35,36.12 M50.35,32.89c-8.52,0-15.45,6.93-15.45,15.45
					c0,5.37,2.51,8.5,4.53,11.02c1.63,2.04,2.48,3.18,2.48,4.93v8.36c0,1.78,1.45,3.23,3.23,3.23h10.41c1.78,0,3.23-1.45,3.23-3.23
					v-8.36c0-1.75,0.85-2.89,2.48-4.93c2.02-2.52,4.53-5.65,4.53-11.02C65.8,39.82,58.87,32.89,50.35,32.89L50.35,32.89z"/>
			</g>
			<g>
				<path class="st1" d="M49.94,40.61c-4.04,0-7.32,3.28-7.32,7.32"/>
			</g>
			<line class="st1" x1="55.56" y1="69.04" x2="45.14" y2="69.04"/>
			<line class="st1" x1="55.56" y1="72.32" x2="45.14" y2="72.32"/>
			<path class="st1" d="M45.14,65.75v-1.47c0-6.31-7.01-7.95-7.01-15.95c0-6.75,5.47-12.22,12.22-12.22
				c6.75,0,12.22,5.47,12.22,12.22c0,8-7.01,9.64-7.01,15.95v1.47H45.14z"/>
			<line class="st1" x1="53.02" y1="75.59" x2="47.68" y2="75.59"/>
		</g>
	</g>
</g>
</svg>
