<svg xmlns="http://www.w3.org/2000/svg" xmlns:xlink="http://www.w3.org/1999/xlink" width="80" height="80" viewBox="0 0 80 80"><defs><radialGradient id="a" cx="0.5" cy="0.5" r="0.682" gradientTransform="translate(-0.094 0.116) rotate(-12.139)" gradientUnits="objectBoundingBox"><stop offset="0" stop-color="#21387c"/><stop offset="1" stop-color="#15265a"/></radialGradient></defs><g transform="translate(-303 -1771)"><circle cx="40" cy="40" r="40" transform="translate(303 1771)" fill="url(#a)"/><g transform="translate(418.898 1735.396)"><path d="M-67.808,60.316a14.785,14.785,0,0,0-12.4-2.959,14.628,14.628,0,0,0-11.329,11.77,14.771,14.771,0,0,0,4.307,13.2,9.5,9.5,0,0,1,2.812,5.678v3.76a4.792,4.792,0,0,0,4.786,4.787h5.05a4.792,4.792,0,0,0,4.787-4.787V87.962A8.465,8.465,0,0,1-67,82.417a14.758,14.758,0,0,0,4.62-10.7A14.635,14.635,0,0,0-67.808,60.316ZM-74.58,94.558h-5.05a2.79,2.79,0,0,1-2.787-2.788V88.9h10.625V91.77A2.791,2.791,0,0,1-74.58,94.558Zm-3.231-19.479a1,1,0,0,0,1.413,0l1.689-1.688,1.086,1.085-3.466,4.377-3.494-4.379,1.085-1.083Zm9.441,5.882A10.653,10.653,0,0,0-71.677,86.9H-76.1V80.832l4.569-5.771,2.634-2.635a1,1,0,0,0,0-1.413,1,1,0,0,0-1.413,0l-1.972,1.972L-74,71.27a1,1,0,0,0-1.413,0L-77.1,72.958l-1.688-1.688a.992.992,0,0,0-.706-.294,1,1,0,0,0-.707.294l-1.716,1.714-1.972-1.972a1,1,0,0,0-1.413,0,1,1,0,0,0,0,1.413l2.638,2.638,4.565,5.722V86.9h-4.467a11.456,11.456,0,0,0-3.271-6.012,12.778,12.778,0,0,1-3.723-11.421A12.616,12.616,0,0,1-79.8,59.314,12.785,12.785,0,0,1-69.07,61.868a12.644,12.644,0,0,1,4.691,9.85A12.75,12.75,0,0,1-68.371,80.961Z" transform="translate(1.534 1.106)" fill="#fff"/><path d="M-91.03,59.565-93.642,57.7a1,1,0,0,0-1.395.231,1,1,0,0,0,.23,1.395l2.612,1.869a.989.989,0,0,0,.581.186,1,1,0,0,0,.813-.416A1,1,0,0,0-91.03,59.565Z" transform="translate(0.668 1.224)" fill="#fff"/><path d="M-93.893,66.948a.924.924,0,0,0,.164.014,1,1,0,0,0,.986-.836,1,1,0,0,0-.823-1.15l-3.169-.525a.994.994,0,0,0-1.15.822,1,1,0,0,0,.823,1.15Z" transform="translate(0 2.953)" fill="#fff"/><path d="M-93.5,70.953l-3.088.886a1,1,0,0,0-.684,1.237,1,1,0,0,0,.96.724.972.972,0,0,0,.276-.04l3.088-.886a1,1,0,0,0,.684-1.236A.991.991,0,0,0-93.5,70.953Z" transform="translate(0.148 4.57)" fill="#fff"/><path d="M-88.306,56.9a1,1,0,0,0,.876.512,1,1,0,0,0,.485-.125,1,1,0,0,0,.387-1.361l-1.563-2.805a1,1,0,0,0-1.361-.387,1,1,0,0,0-.387,1.361Z" transform="translate(1.973)" fill="#fff"/><path d="M-64.043,58.435a1,1,0,0,0-1.395-.231l-2.612,1.869a1,1,0,0,0-.23,1.395,1,1,0,0,0,.813.417,1,1,0,0,0,.581-.186l2.612-1.869A1,1,0,0,0-64.043,58.435Z" transform="translate(7.346 1.351)" fill="#fff"/><path d="M-62.232,64.96l-3.169.525a1,1,0,0,0-.823,1.15,1,1,0,0,0,.986.836.924.924,0,0,0,.164-.014l3.169-.525a1,1,0,0,0,.823-1.15A.994.994,0,0,0-62.232,64.96Z" transform="translate(7.902 3.08)" fill="#fff"/><path d="M-62.4,72.346l-3.088-.885a1,1,0,0,0-1.237.686,1,1,0,0,0,.685,1.236l3.088.886a1.013,1.013,0,0,0,.276.037,1,1,0,0,0,.961-.724A1,1,0,0,0-62.4,72.346Z" transform="translate(7.771 4.697)" fill="#fff"/><path d="M-72.343,57.79a.993.993,0,0,0,.485.126,1,1,0,0,0,.876-.512l1.563-2.805a1,1,0,0,0-.387-1.361,1,1,0,0,0-1.361.386l-1.563,2.807A1,1,0,0,0-72.343,57.79Z" transform="translate(6.25 0.127)" fill="#fff"/></g></g></svg>