<svg xmlns="http://www.w3.org/2000/svg" xmlns:xlink="http://www.w3.org/1999/xlink" width="80" height="80" viewBox="0 0 80 80"><defs><radialGradient id="a" cx="0.5" cy="0.5" r="0.682" gradientTransform="translate(-0.094 0.116) rotate(-12.139)" gradientUnits="objectBoundingBox"><stop offset="0" stop-color="#21387c"/><stop offset="1" stop-color="#15265a"/></radialGradient></defs><g transform="translate(-303 -1771)"><circle cx="40" cy="40" r="40" transform="translate(303 1771)" fill="url(#a)"/><g transform="translate(316.189 1784.147)"><path d="M17.281,31.634v4.147a2.4,2.4,0,0,0,2.4,2.4h3.208a2.4,2.4,0,0,0,2.4-2.4V31.634" transform="translate(5.899 12.115)" fill="none" stroke="#fff" stroke-linecap="round" stroke-linejoin="round" stroke-width="1.6"/><path d="M19.4,28.8a14.563,14.563,0,0,1-1.976-1.53,4,4,0,1,1-3.867-5.009c.122,0,.241.026.357.036a14.441,14.441,0,0,1-1.151-5.648h-1.02l-.554,2.635a.8.8,0,0,1-1.239.5L7.737,18.252l-2.4,2.406,1.523,2.215a.8.8,0,0,1-.5,1.239l-2.632.554v3.208l2.635.554a.8.8,0,0,1,.5,1.239L5.333,31.88l2.4,2.406,2.216-1.523a.8.8,0,0,1,1.24.5l.553,2.631h3.206l.554-2.635a.8.8,0,0,1,1.24-.5l2.215,1.527,2.516-2.516A4.668,4.668,0,0,0,19.4,28.8Z" transform="translate(0 5.592)" fill="none" stroke="#fff" stroke-linecap="round" stroke-linejoin="round" stroke-width="1.6"/><path d="M26.239,6.707a14.431,14.431,0,0,0-9.575,26.47,4.6,4.6,0,0,1,2.174,3.849v3.239a2.4,2.4,0,0,0,2.4,2.406h6.414a2.4,2.4,0,0,0,2.4-2.406V37.092a4.724,4.724,0,0,1,2.222-3.946A14.418,14.418,0,0,0,38.234,25.3" transform="translate(2.738 1.216)" fill="none" stroke="#fff" stroke-linecap="round" stroke-linejoin="round" stroke-width="1.6"/><path d="M40.326,13.517l2.522-1.89L39.961,7.778l-2.52,1.89a1.6,1.6,0,0,1-2.549-1.51l.445-3.117-4.762-.68-.445,3.117a1.6,1.6,0,0,1-2.869.736L25.37,5.693,21.522,8.579l1.89,2.52a1.6,1.6,0,0,1-1.51,2.549L18.785,13.2,18.1,17.966l3.119.445a1.6,1.6,0,0,1,.735,2.871l-2.519,1.89,2.886,3.848,2.519-1.89a1.6,1.6,0,0,1,2.549,1.51l-.448,3.116,4.761.682.449-3.119a1.6,1.6,0,0,1,2.871-.735l1.89,2.519,3.848-2.886L38.872,23.7a1.6,1.6,0,0,1,1.51-2.549l3.117.445.682-4.762-3.119-.445a1.6,1.6,0,0,1-.736-2.869ZM31.143,23.01A5.611,5.611,0,1,1,36.755,17.4,5.611,5.611,0,0,1,31.143,23.01Z" transform="translate(6.257 0.243)" fill="none" stroke="#fff" stroke-linecap="round" stroke-linejoin="round" stroke-width="1.6"/><path d="M17.281,33.847H25.3" transform="translate(5.899 13.078)" fill="none" stroke="#fff" stroke-linecap="round" stroke-linejoin="round" stroke-width="1.6"/><line x2="4.81" y2="4.008" transform="translate(41.619 38.275)" stroke-width="1.6" stroke="#fff" stroke-linecap="round" stroke-linejoin="round" fill="none"/><line x2="5.612" transform="translate(42.42 34.266)" stroke-width="1.6" stroke="#fff" stroke-linecap="round" stroke-linejoin="round" fill="none"/><line y2="5.612" transform="translate(38.412 39.878)" stroke-width="1.6" stroke="#fff" stroke-linecap="round" stroke-linejoin="round" fill="none"/><line x2="1.639" y2="6.413" transform="translate(12.723 3.802)" stroke-width="1.6" stroke="#fff" stroke-linecap="round" stroke-linejoin="round" fill="none"/><line x2="5.611" y2="4.008" transform="translate(5.543 8.613)" stroke-width="1.6" stroke="#fff" stroke-linecap="round" stroke-linejoin="round" fill="none"/><line y1="1.602" x2="6.413" transform="translate(3.94 16.629)" stroke-width="1.6" stroke="#fff" stroke-linecap="round" stroke-linejoin="round" fill="none"/></g></g></svg>