<?xml version="1.0" encoding="utf-8"?>
<!-- Generator: Adobe Illustrator 24.1.2, SVG Export Plug-In . SVG Version: 6.00 Build 0)  -->
<svg version="1.1" id="Calque_1" xmlns="http://www.w3.org/2000/svg" xmlns:xlink="http://www.w3.org/1999/xlink" x="0px" y="0px"
	 viewBox="0 0 100 100" style="enable-background:new 0 0 100 100;" xml:space="preserve">
<style type="text/css">
	.st0{fill:#343233;}
</style>
<g>
	<g>
		<g>
			<rect x="32.9" y="44.39" class="st0" width="7.71" height="21.55"/>
			<path class="st0" d="M44.59,44.39h5.95v2.99c0,0,0.92-3.02,6.42-3.02c4.54,0,7.79,1.77,7.79,6.63c0,2.69,0,14.95,0,14.95H58.4
				c0,0,0.04-12.57,0.07-12.96c0.04-0.39-0.35-3.56-3.59-3.56c-3.24,0-4.26,2.32-4.26,4.08c0,1.76,0,12.43,0,12.43h-6.02V44.39z"/>
			<circle class="st0" cx="36.76" cy="37.57" r="3.86"/>
		</g>
	</g>
	<path class="st0" d="M74.37,83.65H23.28c-4.57,0-8.28-3.72-8.28-8.28V24.28c0-4.57,3.72-8.28,8.28-8.28h51.09
		c4.57,0,8.28,3.72,8.28,8.28v51.09C82.65,79.94,78.94,83.65,74.37,83.65z M23.28,18.86c-2.99,0-5.43,2.43-5.43,5.43v51.09
		c0,2.99,2.43,5.43,5.43,5.43h51.09c2.99,0,5.43-2.43,5.43-5.43V24.28c0-2.99-2.43-5.43-5.43-5.43H23.28z"/>
</g>
</svg>
