<svg xmlns="http://www.w3.org/2000/svg" xmlns:xlink="http://www.w3.org/1999/xlink" width="80" height="80" viewBox="0 0 80 80"><defs><radialGradient id="a" cx="0.5" cy="0.5" r="0.682" gradientTransform="translate(-0.094 0.116) rotate(-12.139)" gradientUnits="objectBoundingBox"><stop offset="0" stop-color="#21387c"/><stop offset="1" stop-color="#15265a"/></radialGradient></defs><g transform="translate(-303 -1771)"><circle cx="40" cy="40" r="40" transform="translate(303 1771)" fill="url(#a)"/><g transform="translate(365.851 1780.64)"><path d="M-40.161,22.047V40.467h5.47" transform="translate(2.1 9.767)" fill="none" stroke="#fff" stroke-linecap="round" stroke-linejoin="round" stroke-width="1.6"/><path d="M-16.022,50.6l11.071-.369V15.894l-7.78-7.78h-27.43V15.14" transform="translate(2.1)" fill="none" stroke="#fff" stroke-linecap="round" stroke-linejoin="round" stroke-width="1.6"/><path d="M-24.035,8.114v7.919h7.78" transform="translate(13.404)" fill="none" stroke="#fff" stroke-linecap="round" stroke-linejoin="round" stroke-width="1.6"/><path d="M-40.862,23.158a9.127,9.127,0,0,0,9.128,9.128,9.128,9.128,0,0,0,9.128-9.128,9.129,9.129,0,0,0-9.128-9.128v9.128Z" transform="translate(1.608 4.147)" fill="none" stroke="#fff" stroke-linecap="round" stroke-linejoin="round" stroke-width="1.6"/><path d="M-43.156,20.818a9.128,9.128,0,0,1,9.128-9.128v9.191Z" transform="translate(0 2.507)" fill="none" stroke="#fff" stroke-linecap="round" stroke-linejoin="round" stroke-width="1.6"/><circle cx="2.749" cy="2.749" r="2.749" transform="translate(-32.591 47.486)" fill="none" stroke="#fff" stroke-linecap="round" stroke-linejoin="round" stroke-width="1.6"/><circle cx="2.749" cy="2.749" r="2.749" transform="translate(-25.448 39.792)" fill="none" stroke="#fff" stroke-linecap="round" stroke-linejoin="round" stroke-width="1.6"/><circle cx="2.749" cy="2.749" r="2.749" transform="translate(-19.387 47.486)" fill="none" stroke="#fff" stroke-linecap="round" stroke-linejoin="round" stroke-width="1.6"/><circle cx="2.749" cy="2.749" r="2.749" transform="translate(-12.244 39.792)" fill="none" stroke="#fff" stroke-linecap="round" stroke-linejoin="round" stroke-width="1.6"/><line x2="7.306" transform="translate(-16.381 22.257)" stroke-width="1.6" stroke="#fff" stroke-linecap="round" stroke-linejoin="round" fill="none"/><line x2="7.306" transform="translate(-16.381 26.925)" stroke-width="1.6" stroke="#fff" stroke-linecap="round" stroke-linejoin="round" fill="none"/><line x2="2.639" transform="translate(-16.381 31.593)" stroke-width="1.6" stroke="#fff" stroke-linecap="round" stroke-linejoin="round" fill="none"/><line y1="3.676" x2="3.413" transform="translate(-27.977 44.55)" stroke-width="1.6" stroke="#fff" stroke-linecap="round" stroke-linejoin="round" fill="none"/><line y1="3.676" x2="3.413" transform="translate(-14.735 44.55)" stroke-width="1.6" stroke="#fff" stroke-linecap="round" stroke-linejoin="round" fill="none"/><line x2="2.661" y2="3.378" transform="translate(-20.999 44.699)" stroke-width="1.6" stroke="#fff" stroke-linecap="round" stroke-linejoin="round" fill="none"/><line x2="7.706" transform="translate(-27.093 50.235)" stroke-width="1.6" stroke="#fff" stroke-linecap="round" stroke-linejoin="round" fill="none"/></g></g></svg>