<svg xmlns="http://www.w3.org/2000/svg" xmlns:xlink="http://www.w3.org/1999/xlink" width="80" height="80" viewBox="0 0 80 80"><defs><radialGradient id="a" cx="0.5" cy="0.5" r="0.682" gradientTransform="translate(-0.094 0.116) rotate(-12.139)" gradientUnits="objectBoundingBox"><stop offset="0" stop-color="#21387c"/><stop offset="1" stop-color="#15265a"/></radialGradient></defs><g transform="translate(-303 -1771)"><circle cx="40" cy="40" r="40" transform="translate(303 1771)" fill="url(#a)"/><g transform="translate(318.981 1786.324)"><rect width="10.535" height="7.114" transform="translate(24.473 17.614)" stroke-width="1.6" stroke="#fff" stroke-linecap="round" stroke-linejoin="round" fill="none"/><rect width="10.535" height="7.114" transform="translate(13.938 17.614)" stroke-width="1.6" stroke="#fff" stroke-linecap="round" stroke-linejoin="round" fill="none"/><path d="M17.99,16.61v.834H14.8V16.61" transform="translate(2.81 3.644)" fill="none" stroke="#fff" stroke-linecap="round" stroke-linejoin="round" stroke-width="1.6"/><path d="M25.972,16.61v.834H22.783V16.61" transform="translate(5.363 3.644)" fill="none" stroke="#fff" stroke-linecap="round" stroke-linejoin="round" stroke-width="1.6"/><path d="M16.009,13.694V9.22H26.544v7.114" transform="translate(3.196 1.28)" fill="none" stroke="#fff" stroke-linecap="round" stroke-linejoin="round" stroke-width="1.6"/><path d="M21.981,11.22v.834H18.792V11.22" transform="translate(4.086 1.919)" fill="none" stroke="#fff" stroke-linecap="round" stroke-linejoin="round" stroke-width="1.6"/><path d="M6.018,24.728V5.22h3.96" transform="translate(0)" fill="none" stroke="#fff" stroke-linecap="round" stroke-linejoin="round" stroke-width="1.6"/><line y2="15.549" transform="translate(9.978 9.179)" stroke-width="1.6" stroke="#fff" stroke-linecap="round" stroke-linejoin="round" fill="none"/><path d="M34.941,24.728V5.22h-3.96" transform="translate(7.986)" fill="none" stroke="#fff" stroke-linecap="round" stroke-linejoin="round" stroke-width="1.6"/><line y2="15.549" transform="translate(38.967 9.179)" stroke-width="1.6" stroke="#fff" stroke-linecap="round" stroke-linejoin="round" fill="none"/><line x2="36.909" transform="translate(6.018 24.728)" stroke-width="1.6" stroke="#fff" stroke-linecap="round" stroke-linejoin="round" fill="none"/><rect width="10.535" height="7.114" transform="translate(24.473 37.122)" stroke-width="1.6" stroke="#fff" stroke-linecap="round" stroke-linejoin="round" fill="none"/><rect width="10.535" height="7.114" transform="translate(13.938 37.122)" stroke-width="1.6" stroke="#fff" stroke-linecap="round" stroke-linejoin="round" fill="none"/><path d="M17.99,31.39v.834H14.8V31.39" transform="translate(2.81 8.372)" fill="none" stroke="#fff" stroke-linecap="round" stroke-linejoin="round" stroke-width="1.6"/><path d="M25.972,31.39v.834H22.783V31.39" transform="translate(5.363 8.372)" fill="none" stroke="#fff" stroke-linecap="round" stroke-linejoin="round" stroke-width="1.6"/><path d="M16.009,28.475V24H26.544v7.114" transform="translate(3.196 6.008)" fill="none" stroke="#fff" stroke-linecap="round" stroke-linejoin="round" stroke-width="1.6"/><path d="M21.981,26v.834H18.792V26" transform="translate(4.086 6.648)" fill="none" stroke="#fff" stroke-linecap="round" stroke-linejoin="round" stroke-width="1.6"/><path d="M6.018,39.508V20h3.96" transform="translate(0 4.728)" fill="none" stroke="#fff" stroke-linecap="round" stroke-linejoin="round" stroke-width="1.6"/><line y2="14.229" transform="translate(9.978 30.008)" stroke-width="1.6" stroke="#fff" stroke-linecap="round" stroke-linejoin="round" fill="none"/><path d="M34.941,39.508V20h-3.96" transform="translate(7.986 4.728)" fill="none" stroke="#fff" stroke-linecap="round" stroke-linejoin="round" stroke-width="1.6"/><line y2="14.229" transform="translate(38.967 30.008)" stroke-width="1.6" stroke="#fff" stroke-linecap="round" stroke-linejoin="round" fill="none"/><line x2="36.909" transform="translate(6.018 44.237)" stroke-width="1.6" stroke="#fff" stroke-linecap="round" stroke-linejoin="round" fill="none"/></g></g></svg>