<svg xmlns="http://www.w3.org/2000/svg" width="260" height="64.694" viewBox="0 0 260 64.694"><g transform="translate(78.438)"><path d="M132.769,42.2H104.318L92.5,55.594h36.68v-.088L141.173,42.2Z" transform="translate(-89.961 -5.257)" fill="#5ead6f"/><path d="M119.2,0V35.1h13.306V0Z" transform="translate(-93.288)" fill="#5ead6f"/><rect width="13.394" height="12.519" transform="translate(25.912 52.175)" fill="#5ead6f"/><path d="M89.6,50.636l11.818-13.394h0L113.587,23.41V2.4L89.6,29.713V50.548Z" transform="translate(-89.6 -0.299)" fill="#5ead6f"/><g transform="translate(69.859 57.165)"><path d="M169.488,65.5h5.253v1.4h-3.764v1.4H174.3v1.4h-3.327V71.19h3.764v1.4H169.4V65.5Z" transform="translate(-169.4 -65.325)" fill="#5ead6f"/><path d="M178.1,65.5h1.663l1.838,2.976L183.44,65.5H185.1v7h-1.488V67.951l-1.926,2.976h0l-1.926-2.976V72.5h-1.488v-7Z" transform="translate(-170.484 -65.325)" fill="#5ead6f"/><path d="M189,65.5h3.239a2.89,2.89,0,0,1,1.838.613,1.525,1.525,0,0,1,.438,1.226h0a1.651,1.651,0,0,1-.875,1.488,1.787,1.787,0,0,1,1.313,1.751h0c0,1.313-1.051,1.926-2.626,1.926H189Zm2.889,2.8c.7,0,1.138-.263,1.138-.7h0c0-.438-.35-.7-1.051-.7h-1.488v1.488h1.4Zm.438,2.8q1.051,0,1.051-.788h0c0-.438-.35-.788-1.138-.788h-1.751V71.1Z" transform="translate(-171.842 -65.325)" fill="#5ead6f"/><path d="M200.476,65.4h1.4l2.976,7h-1.576l-.613-1.576h-2.976l-.613,1.576H197.5Zm1.576,4.114-.963-2.276-.963,2.276Z" transform="translate(-172.901 -65.312)" fill="#5ead6f"/><path d="M208.1,65.5h1.576v5.6h3.5v1.4h-4.99v-7Z" transform="translate(-174.221 -65.325)" fill="#5ead6f"/><path d="M216.1,65.5h1.576v5.6h3.5v1.4h-4.99v-7Z" transform="translate(-175.218 -65.325)" fill="#5ead6f"/><path d="M226.376,65.4h1.4l2.976,7h-1.576l-.613-1.576h-2.976l-.613,1.576H223.4Zm1.576,4.114-.963-2.276-.963,2.276Z" transform="translate(-176.127 -65.312)" fill="#5ead6f"/><path d="M233.1,68.977h0a3.643,3.643,0,0,1,3.677-3.677,3.792,3.792,0,0,1,2.714.963l-.963,1.138a2.659,2.659,0,0,0-1.838-.7,2.079,2.079,0,0,0-2.013,2.189h0a2.046,2.046,0,0,0,2.1,2.189,2.951,2.951,0,0,0,1.488-.438v-.963h-1.576V68.364h3.064v3.064a4.579,4.579,0,0,1-2.976,1.138A3.47,3.47,0,0,1,233.1,68.977Z" transform="translate(-177.336 -65.3)" fill="#5ead6f"/><path d="M243.388,65.5h5.253v1.4h-3.764v1.4H248.2v1.4h-3.327V71.19h3.764v1.4H243.3V65.5Z" transform="translate(-178.606 -65.325)" fill="#5ead6f"/><path d="M256.288,65.5h2.889a2.422,2.422,0,0,1,2.714,2.451h0c0,1.576-1.226,2.451-2.8,2.451h-1.313v2.1H256.2v-7ZM259,69c.788,0,1.226-.438,1.226-1.05h0c0-.7-.438-1.051-1.226-1.051h-1.226V69H259Z" transform="translate(-180.213 -65.325)" fill="#5ead6f"/><path d="M266.376,65.4h1.4l2.976,7h-1.576l-.613-1.576h-2.976l-.613,1.576H263.4Zm1.576,4.114-.963-2.276-.963,2.276Z" transform="translate(-181.11 -65.312)" fill="#5ead6f"/><path d="M274,65.5h3.239a2.8,2.8,0,0,1,2.013.7,2.333,2.333,0,0,1,.613,1.576h0a2.216,2.216,0,0,1-1.488,2.189l1.751,2.539H278.29L276.8,70.227h-1.226V72.5H274Zm3.064,3.414c.788,0,1.138-.438,1.138-.963h0c0-.7-.438-.963-1.226-.963h-1.488V69h1.576Z" transform="translate(-182.431 -65.325)" fill="#5ead6f"/><path d="M283.3,65.5h1.576v7H283.3Z" transform="translate(-183.59 -65.325)" fill="#5ead6f"/><path d="M287.4,71.453l.875-1.05a3.231,3.231,0,0,0,2.1.875c.613,0,1.051-.263,1.051-.7h0c0-.35-.263-.613-1.4-.875-1.4-.35-2.276-.788-2.276-2.1h0a2.226,2.226,0,0,1,2.451-2.1,4.3,4.3,0,0,1,2.626.875l-.788,1.138a3.22,3.22,0,0,0-1.838-.7c-.613,0-.875.263-.875.613h0c0,.438.263.613,1.488.875,1.4.35,2.189.875,2.189,2.1h0c0,1.4-1.051,2.189-2.539,2.189A4.3,4.3,0,0,1,287.4,71.453Z" transform="translate(-184.1 -65.325)" fill="#5ead6f"/></g></g><g transform="translate(132.364 13.657)"><path d="M253.588,52.965H240.719a13.939,13.939,0,0,1-5.778-1.226,12.509,12.509,0,0,1-4.2-3.5,13.6,13.6,0,0,1-2.451-4.9,19.694,19.694,0,0,1-.788-5.6,20.309,20.309,0,0,1,.788-5.69,15.163,15.163,0,0,1,2.451-4.9,11.334,11.334,0,0,1,4.2-3.414,13.243,13.243,0,0,1,5.69-1.226H253.5v6.741H242.295a5.771,5.771,0,0,0-5.077,2.276,10.8,10.8,0,0,0-1.663,6.215,10.907,10.907,0,0,0,1.663,6.3,5.771,5.771,0,0,0,5.077,2.276H253.5v6.653Z" transform="translate(-160.705 -16.46)" fill="#fff"/><path d="M282.643,22.4,271,31.592h10.943L293.761,22.4Z" transform="translate(-166.125 -16.447)" fill="#fff"/><path d="M286.337,35.3a9.511,9.511,0,0,0-7-2.626H269V30.745h0V15.6h-7.7V52.018H269V39.411h8.4a4.48,4.48,0,0,1,2.451.7c.963.613,1.4,1.751,1.4,3.589v8.4h7.7V44.139a24.4,24.4,0,0,0-.438-4.99,6.453,6.453,0,0,0-2.189-3.852" transform="translate(-164.916 -15.6)" fill="#fff"/><path d="M183.328,31.942a15.165,15.165,0,0,0-2.451-4.9,12.072,12.072,0,0,0-9.98-4.64H151.2v6.741h0V67.484h7.966V29.141h9.98a5.771,5.771,0,0,1,5.077,2.276,10.8,10.8,0,0,1,1.663,6.215,14.049,14.049,0,0,1-.7,4.465,5.848,5.848,0,0,1-6.04,4.114h-8.054v6.653h9.717a12.478,12.478,0,0,0,5.778-1.313,13.361,13.361,0,0,0,4.2-3.414,15.164,15.164,0,0,0,2.451-4.9,20.143,20.143,0,0,0,.788-5.6,17.818,17.818,0,0,0-.7-5.69" transform="translate(-151.2 -16.447)" fill="#fff"/><path d="M220.176,28.891a7.287,7.287,0,0,0-1.838-3.414,8.3,8.3,0,0,0-6.566-2.976H192.251v6.741h16.633a11.42,11.42,0,0,1,2.013.175,1.575,1.575,0,0,1,.788.525,5.289,5.289,0,0,1,1.138,3.414h0V46.311h-9.367a4.88,4.88,0,0,1-3.151-.788,2.865,2.865,0,0,1-.788-2.276c0-1.488.438-2.976,3.764-2.976H210.9V33.443h-9.1a11.6,11.6,0,0,0-7.7,2.451c-1.926,1.663-2.889,4.114-2.889,7.266a9.366,9.366,0,0,0,2.889,7.266,11.188,11.188,0,0,0,7.7,2.539h18.734V33.443a20.77,20.77,0,0,0-.35-4.552" transform="translate(-156.183 -16.46)" fill="#fff"/></g><g transform="translate(0 13.657)"><path d="M60.8,15.6V40.024a15.691,15.691,0,0,0,.875,5.428A9.432,9.432,0,0,0,64.127,49.3a11.51,11.51,0,0,0,8.054,2.714h8.754V45.89H74.719a6.6,6.6,0,0,1-2.451-.35,5.263,5.263,0,0,1-2.1-1.226A6.6,6.6,0,0,1,68.5,42.038a8.959,8.959,0,0,1-.438-2.8V15.6Z" transform="translate(-7.574 -15.6)" fill="#fff"/><path d="M37,15.6V40.024a15.691,15.691,0,0,0,.875,5.428A9.432,9.432,0,0,0,40.327,49.3a11.51,11.51,0,0,0,8.054,2.714h8.754V45.89H50.919a6.6,6.6,0,0,1-2.451-.35,5.264,5.264,0,0,1-2.1-1.226,5.374,5.374,0,0,1-1.576-2.276,8.958,8.958,0,0,1-.438-2.8V15.6Z" transform="translate(-4.609 -15.6)" fill="#fff"/><path d="M28.976,28.891a7.287,7.287,0,0,0-1.838-3.414A8.3,8.3,0,0,0,20.572,22.5H1.051v6.741H17.684a11.42,11.42,0,0,1,2.013.175,2.332,2.332,0,0,1,.875.525,5.289,5.289,0,0,1,1.138,3.414h0V46.311H12.256A4.88,4.88,0,0,1,9.1,45.524a2.865,2.865,0,0,1-.788-2.276c0-1.488.438-2.976,3.764-2.976H19.7V33.443h-9.1a11.6,11.6,0,0,0-7.7,2.451A9.433,9.433,0,0,0,0,43.247a9.366,9.366,0,0,0,2.889,7.266,11.189,11.189,0,0,0,7.7,2.539H29.327V33.443a20.77,20.77,0,0,0-.35-4.552" transform="translate(0 -16.46)" fill="#fff"/></g></svg>