<?xml version="1.0" encoding="utf-8"?>
<!-- Generator: Adobe Illustrator 24.1.2, SVG Export Plug-In . SVG Version: 6.00 Build 0)  -->
<svg version="1.1" id="Calque_1" xmlns="http://www.w3.org/2000/svg" xmlns:xlink="http://www.w3.org/1999/xlink" x="0px" y="0px"
	 viewBox="0 0 100 100" style="enable-background:new 0 0 100 100;" xml:space="preserve">
<style type="text/css">
	.st0{fill:#FFFF00;}
	.st1{fill:none;stroke:#2E2D2C;stroke-width:2.5837;stroke-linecap:round;stroke-linejoin:round;stroke-miterlimit:10;}
	.st2{fill:#FFFFFF;stroke:#2E2D2C;stroke-width:2.5837;stroke-linecap:round;stroke-linejoin:round;stroke-miterlimit:10;}
	.st3{fill:#2E2D2C;}
	.st4{fill:#FFFF00;stroke:#2E2D2C;stroke-width:2.5837;stroke-linecap:round;stroke-linejoin:round;stroke-miterlimit:10;}
</style>
<circle class="st0" cx="49.5" cy="49.5" r="48.5"/>
<g>
	<g>
		<g>
			<line class="st1" x1="38.34" y1="33.36" x2="26" y2="45.69"/>
			<path class="st1" d="M52.05,36.78h-8.2c-1.3,0-2.56-0.52-3.48-1.43l-4.89-4.84"/>
			<polyline class="st2" points="16.28,45.54 21.25,50.51 39.67,32.09 34.7,27.12 			"/>
			<path class="st3" d="M19.81,42.02c0,0.8,0.65,1.44,1.44,1.44c0.8,0,1.44-0.65,1.44-1.44s-0.65-1.44-1.44-1.44
				C20.45,40.58,19.81,41.23,19.81,42.02z"/>
			<g>
				<path class="st1" d="M33.69,53.37l18.89,18.89c1.14,1.14,2.98,1.14,4.11,0c1.14-1.14,1.14-2.98,0-4.11l-1.64-1.64"/>
				<path class="st1" d="M51.82,63.27l5.72,5.72c1.14,1.14,2.98,1.14,4.11,0c1.14-1.14,1.14-2.98,0-4.11l-3.34-3.34"/>
				<path class="st1" d="M55.93,59.16l6.57,6.57c1.14,1.14,2.98,1.14,4.11,0c1.14-1.14,1.14-2.98,0-4.11l-6.57-6.57"/>
			</g>
			<g>
				<path class="st4" d="M47.67,72.28c-1.14,1.14-2.98,1.14-4.11,0c-1.14-1.14-1.14-2.98,0-4.11l1.64-1.64
					c1.14-1.14,2.98-1.14,4.11,0c1.14,1.14,1.14,2.98,0,4.11L47.67,72.28z"/>
				<path class="st4" d="M35.45,59.83c-1.14,1.14-2.98,1.14-4.11,0c-1.14-1.14-1.14-2.98,0-4.11l3.34-3.34
					c1.14-1.14,2.98-1.14,4.11,0c1.14,1.14,1.14,2.98,0,4.11L35.45,59.83z"/>
				<path class="st4" d="M42.71,69.02c-1.14,1.14-2.98,1.14-4.11,0c-1.14-1.14-1.14-2.98,0-4.11l3.34-3.34
					c1.14-1.14,2.98-1.14,4.11,0c1.14,1.14,1.14,2.98,0,4.11L42.71,69.02z"/>
				<path class="st4" d="M37.76,65.75c-1.14,1.14-2.98,1.14-4.11,0c-1.14-1.14-1.14-2.98,0-4.11l5.03-5.03
					c1.14-1.14,2.98-1.14,4.11,0c1.14,1.14,1.14,2.98,0,4.11L37.76,65.75z"/>
			</g>
			<line class="st1" x1="67.37" y1="54.15" x2="75.02" y2="46.5"/>
			<line class="st1" x1="61.88" y1="33.36" x2="75.17" y2="46.65"/>
			<path class="st4" d="M62.42,57.43l2.32,2.32c1.12,1.12,2.94,1.2,4.09,0.12c1.21-1.13,1.23-3.02,0.07-4.18L57.98,44.77
				c-0.86-0.86-2.02-1.34-3.23-1.33l-5.35,0.03l-2.42,2.42c-1.78,1.78-4.44,2.17-6.6,1.15c-0.92-0.43-1.12-1.65-0.41-2.36l6.55-6.55
				c0.86-0.86,2.03-1.34,3.24-1.34h6.64c1.3,0,2.56-0.52,3.48-1.43l4.89-4.84"/>
			<path class="st4" d="M62.7,41.21c1.06,1.06,1.71,2.52,1.71,4.14c0,1.62-0.65,3.08-1.71,4.14"/>
			<polyline class="st2" points="84,45.54 79.03,50.51 60.61,32.09 65.58,27.12 			"/>
			<line class="st1" x1="32.91" y1="54.15" x2="25.26" y2="46.5"/>
			<path class="st3" d="M80.47,42.02c0,0.8-0.65,1.44-1.44,1.44c-0.8,0-1.44-0.65-1.44-1.44s0.65-1.44,1.44-1.44
				C79.83,40.58,80.47,41.23,80.47,42.02z"/>
		</g>
		<path class="st4" d="M32.91,45.88c-1.06,1.06-1.71,2.52-1.71,4.14c0,1.62,0.65,3.08,1.71,4.14"/>
	</g>
</g>
</svg>
