<svg xmlns="http://www.w3.org/2000/svg" width="15.975" height="14.231" viewBox="0 0 15.975 14.231"><g transform="translate(-4.2 -7.2)"><g transform="translate(5 8)"><path d="M16.5,12.313V9.533A1.534,1.534,0,0,0,14.967,8H6.533A1.534,1.534,0,0,0,5,9.533v4.6a1.534,1.534,0,0,0,1.533,1.533H7.3v1.917l1.917-1.917H10.75" transform="translate(-5 -8)" fill="none" stroke="#152345" stroke-miterlimit="10" stroke-width="1.6"/></g><g transform="translate(10.75 12.313)"><path d="M18.15,22.75A1.15,1.15,0,0,1,17,21.6V18.15A1.15,1.15,0,0,1,18.15,17h6.325a1.15,1.15,0,0,1,1.15,1.15V21.6a1.15,1.15,0,0,1-1.15,1.15H23.9v1.438L22.462,22.75Z" transform="translate(-17 -17)" fill="none" stroke="#152345" stroke-miterlimit="10" stroke-width="1.6"/></g></g></svg>