<svg xmlns="http://www.w3.org/2000/svg" width="22.871" height="38.752" viewBox="0 0 22.871 38.752"><g transform="translate(0.289 0.302)"><rect width="20.49" height="22.046" transform="translate(0.9 10.626)" stroke-width="1.7" stroke="#5ead6f" stroke-linecap="round" stroke-linejoin="round" stroke-miterlimit="10" fill="none"/><path d="M21.39,25.3,17.5,30.358H4.661L.9,25.3" transform="translate(0 7.242)" fill="none" stroke="#5ead6f" stroke-linecap="round" stroke-linejoin="round" stroke-miterlimit="10" stroke-width="1.7"/><path d="M.9,9.558,4.661,4.5H17.5l3.89,5.058" transform="translate(0 1.069)" fill="none" stroke="#5ead6f" stroke-linecap="round" stroke-linejoin="round" stroke-miterlimit="10" stroke-width="1.7"/><line x2="4.409" y2="4.539" transform="translate(8.551 0.9)" stroke-width="1.7" stroke="#5ead6f" stroke-linecap="round" stroke-linejoin="round" stroke-miterlimit="10" fill="none"/><path d="M7.5,8.4c-5.317,8.818,7.262,15.951,3.631,22.046" transform="translate(1.565 2.226)" fill="none" stroke="#5ead6f" stroke-linecap="round" stroke-linejoin="round" stroke-miterlimit="10" stroke-width="1.7"/><path d="M13.041,29.927c1.167-2.2,1.3-3.631.259-6.614-1.167-3.5-2.594-6.873-2.075-10.115.389-3.631,1.816-4.8,1.816-4.8" transform="translate(3.032 2.226)" fill="none" stroke="#5ead6f" stroke-linecap="round" stroke-linejoin="round" stroke-miterlimit="10" stroke-width="1.7"/></g></svg>