<?xml version="1.0" encoding="utf-8"?>
<!-- Generator: Adobe Illustrator 24.1.2, SVG Export Plug-In . SVG Version: 6.00 Build 0)  -->
<svg version="1.1" id="Calque_1" xmlns="http://www.w3.org/2000/svg" xmlns:xlink="http://www.w3.org/1999/xlink" x="0px" y="0px"
	 viewBox="0 0 100 100" style="enable-background:new 0 0 100 100;" xml:space="preserve">
<style type="text/css">
	.st0{fill:#FFFF00;}
	.st1{fill:none;stroke:#2E2D2C;stroke-width:2.5837;stroke-linecap:round;stroke-linejoin:round;stroke-miterlimit:10;}
	.st2{fill:#FFFFFF;stroke:#FFFFFF;stroke-width:7.751;stroke-linecap:round;stroke-linejoin:round;stroke-miterlimit:10;}
</style>
<circle class="st0" cx="49.5" cy="49.5" r="48.5"/>
<g>
	<g>
		<g>
			<g>
				<g>
					<line class="st1" x1="62.55" y1="71.83" x2="69.13" y2="71.83"/>
					<g>
						<path class="st1" d="M76.97,78.95l1.02-13.89c0.2-2.97-2.03-5.78-4.97-6.25l-12.52-2l-5.86,19l-2.26-11.7
							c-0.17-0.87-0.07-1.78,0.27-2.6l2.04-4.84"/>
						<path class="st1" d="M45.3,56.65l2.04,4.84c0.35,0.82,0.44,1.73,0.27,2.6l-2.26,11.7l-5.86-19l-12.52,2
							c-2.93,0.47-5.17,3.28-4.97,6.25l1.02,13.89"/>
					</g>
				</g>
				<line class="st1" x1="43.84" y1="50.23" x2="39.5" y2="56.8"/>
				<line class="st1" x1="56.16" y1="50.23" x2="60.5" y2="56.8"/>
			</g>
		</g>
		<g>
			<path class="st2" d="M50,47.84l-9.86,7.2c-0.85,0.62-1.99-0.21-1.67-1.21l3.8-11.6l-9.89-7.15c-0.85-0.62-0.41-1.96,0.64-1.96
				l12.2,0.03l3.74-11.62c0.32-1,1.74-1,2.06,0l3.74,11.62l12.2-0.03c1.05,0,1.49,1.34,0.64,1.96l-9.89,7.15l3.8,11.6
				c0.33,1-0.82,1.83-1.67,1.21L50,47.84z"/>
			<path class="st1" d="M50,47.84l-9.86,7.2c-0.85,0.62-1.99-0.21-1.67-1.21l3.8-11.6l-9.89-7.15c-0.85-0.62-0.41-1.96,0.64-1.96
				l12.2,0.03l3.74-11.62c0.32-1,1.74-1,2.06,0l3.74,11.62l12.2-0.03c1.05,0,1.49,1.34,0.64,1.96l-9.89,7.15l3.8,11.6
				c0.33,1-0.82,1.83-1.67,1.21L50,47.84z"/>
		</g>
	</g>
</g>
</svg>
