<svg xmlns="http://www.w3.org/2000/svg" width="25.381" height="37.118" viewBox="0 0 25.381 37.118"><g transform="translate(0.38 0.05)"><path d="M16.277,4.167H6.3V1.3A.536.536,0,0,1,6.8.8h8.979a.536.536,0,0,1,.5.5Z" transform="translate(1.359 0)" fill="none" stroke="#5ead6f" stroke-linecap="round" stroke-linejoin="round" stroke-miterlimit="10" stroke-width="1.7"/><path d="M22.125,33.994H2.546A1.7,1.7,0,0,1,.8,32.248V9.8H23.871V32.248A1.878,1.878,0,0,1,22.125,33.994Z" transform="translate(0 2.224)" fill="none" stroke="#5ead6f" stroke-linecap="round" stroke-linejoin="round" stroke-miterlimit="10" stroke-width="1.7"/><path d="M11.1,35.551V11.606L15.091,3.5a42.16,42.16,0,0,1,6.236,7.857" transform="translate(2.545 0.667)" fill="none" stroke="#5ead6f" stroke-linecap="round" stroke-linejoin="round" stroke-miterlimit="10" stroke-width="1.7"/><path d="M7.534,3.5C5.165,4.872.8,11.357.8,11.357" transform="translate(0 0.667)" fill="none" stroke="#5ead6f" stroke-linecap="round" stroke-linejoin="round" stroke-miterlimit="10" stroke-width="1.7"/></g></svg>