<svg xmlns="http://www.w3.org/2000/svg" width="33.358" height="36.299" viewBox="0 0 33.358 36.299"><g transform="translate(97.446 -1.102)"><circle cx="4.434" cy="4.434" r="4.434" transform="translate(-85.201 5.336)" fill="none" stroke="#fff" stroke-linecap="round" stroke-linejoin="round" stroke-width="1.6"/><path d="M-80.31,37.337c2.641,0,3.774-.069,3.774-2.081V26.828h2.641V21.922c0-2.515-3.522-4.025-6.415-4.025s-6.415,1.509-6.415,4.025v4.906h2.641v8.428C-84.084,37.268-82.951,37.337-80.31,37.337Z" transform="translate(-0.457 -0.736)" fill="none" stroke="#fff" stroke-linecap="round" stroke-linejoin="round" stroke-width="1.6"/><path d="M-72.181,10.354A4.434,4.434,0,0,0-66.27,8.26a4.434,4.434,0,0,0-2.094-5.91,4.435,4.435,0,0,0-5.911,2.094" transform="translate(-1.031)" fill="none" stroke="#fff" stroke-linecap="round" stroke-linejoin="round" stroke-width="1.6"/><path d="M-72.988,33.528a9.385,9.385,0,0,0,2.722.225c2.641,0,3.774-.068,3.774-2.081V23.245h2.641V18.339c0-2.516-3.522-4.026-6.415-4.026a9.356,9.356,0,0,0-3.882.858" transform="translate(-1.037 -0.571)" fill="none" stroke="#fff" stroke-linecap="round" stroke-linejoin="round" stroke-width="1.6"/><path d="M-88.226,10.354A4.434,4.434,0,0,1-94.138,8.26a4.434,4.434,0,0,1,2.094-5.91,4.435,4.435,0,0,1,5.911,2.094" transform="translate(-0.096)" fill="none" stroke="#fff" stroke-linecap="round" stroke-linejoin="round" stroke-width="1.6"/><path d="M-87.509,33.528a9.385,9.385,0,0,1-2.722.225c-2.641,0-3.774-.068-3.774-2.081V23.245h-2.641V18.339c0-2.516,3.522-4.026,6.415-4.026a9.356,9.356,0,0,1,3.882.858" transform="translate(0 -0.571)" fill="none" stroke="#fff" stroke-linecap="round" stroke-linejoin="round" stroke-width="1.6"/></g></svg>