<svg xmlns="http://www.w3.org/2000/svg" xmlns:xlink="http://www.w3.org/1999/xlink" width="80" height="80" viewBox="0 0 80 80"><defs><radialGradient id="a" cx="0.5" cy="0.5" r="0.682" gradientTransform="translate(-0.094 0.116) rotate(-12.139)" gradientUnits="objectBoundingBox"><stop offset="0" stop-color="#21387c"/><stop offset="1" stop-color="#15265a"/></radialGradient></defs><g transform="translate(-303 -1771)"><circle cx="40" cy="40" r="40" transform="translate(303 1771)" fill="url(#a)"/><g transform="translate(368.741 1736.892)"><path d="M-10.321,78.54v-.68a.834.834,0,0,0-.023-.109c1.5-.869,2.831-2.626,2.831-6.139,0-3.446-.632-8.027-6.1-8.027a5.726,5.726,0,0,0-4.014,1.373,7.458,7.458,0,0,0-7.195-5.54h-.85a7.458,7.458,0,0,0-7.195,5.54,5.726,5.726,0,0,0-4.014-1.373c-5.464,0-6.1,4.581-6.1,8.027,0,3.513,1.334,5.271,2.831,6.139a.834.834,0,0,0-.023.109v.677c-1.756.148-5.285.775-6.733,3.281-.86,1.519-.854,3.225-.845,5.2v.6a1.014,1.014,0,0,0,1.015,1.015h7.13a32.211,32.211,0,0,0-.243,3.632h-5.239a1.015,1.015,0,0,0-1.013,1.015A1.014,1.014,0,0,0-45.076,94.3h39.67a1.014,1.014,0,0,0,1.013-1.015,1.015,1.015,0,0,0-1.013-1.015h-5.239a32.211,32.211,0,0,0-.244-3.632h7.13a1.014,1.014,0,0,0,1.015-1.015v-.6c.009-1.973.015-3.679-.85-5.207C-5.038,79.307-8.564,78.687-10.321,78.54Zm-13.2-10.808A5.931,5.931,0,0,0-19.392,69.6v2.317a5.431,5.431,0,0,1-5.424,5.424h-.85a5.431,5.431,0,0,1-5.424-5.424V69.643C-28.6,69.619-25.938,69.414-23.518,67.732Zm6.413,9.84a1,1,0,0,0-.058.288v.728a13.615,13.615,0,0,0-3.855,1.193V78.313A7.5,7.5,0,0,0-18.6,76.019,5.2,5.2,0,0,0-17.1,77.572Zm-10.331,1.571a7.4,7.4,0,0,0,1.769.221h.85a7.4,7.4,0,0,0,1.769-.221v2.188l-2.194,8.079-2.194-8.079Zm-4.444-3.125a7.5,7.5,0,0,0,2.415,2.294v1.469a13.615,13.615,0,0,0-3.855-1.193V77.86a.994.994,0,0,0-.058-.288A5.2,5.2,0,0,0-31.879,76.019Zm-1.734,4.557a8.911,8.911,0,0,1,1.622.378,14.358,14.358,0,0,0-1.956.659C-33.847,81.3-33.738,80.965-33.613,80.576Zm4.394,1.939,1.926,7.089-5.759-6.159A12.628,12.628,0,0,1-29.218,82.515Zm7.954,0a12.637,12.637,0,0,1,3.833.931L-23.191,89.6Zm2.784-1.557a9.02,9.02,0,0,1,1.611-.38c.126.389.235.727.334,1.036A14.192,14.192,0,0,0-18.48,80.957Zm6.131-1.585-1.16,4.11c-.138-.12-.273-.241-.417-.353-.141-.458-.469-1.51-1.206-3.778v-.958a7.21,7.21,0,0,0,1.526.175,7.43,7.43,0,0,0,1.258-.108Zm-1.258-2.832a3.61,3.61,0,0,1-3.9-3.182,7.443,7.443,0,0,0,.143-1.446V70.851a7.818,7.818,0,0,0,3.739-.807,8.3,8.3,0,0,0,4.067.814c.009.242.016.49.016.753C-9.541,74.881-10.909,76.54-13.608,76.54Zm0-10.926c1.891,0,3.289.621,3.825,3.21a5.477,5.477,0,0,1-3.263-.79.99.99,0,0,0-.6-.152,1,1,0,0,0-.566.153,5.314,5.314,0,0,1-3.152.786v-.3A3.348,3.348,0,0,1-13.608,65.614Zm-12.058-4.166h.85a5.431,5.431,0,0,1,5.424,5.423v.673c-1.133-.15-2.271-.538-2.58-1.15.124-.128.249-.254.37-.393a1.013,1.013,0,0,0-.1-1.431,1.011,1.011,0,0,0-1.431.1c-2.307,2.644-5.048,2.917-7.961,2.945v-.743A5.431,5.431,0,0,1-25.666,61.448Zm-11.209,4.166a3.348,3.348,0,0,1,3.755,2.911v.3a5.314,5.314,0,0,1-3.152-.786,1,1,0,0,0-.687-.152.969.969,0,0,0-.478.151,5.477,5.477,0,0,1-3.263.79C-40.163,66.236-38.766,65.614-36.875,65.614Zm-4.051,5.244a8.3,8.3,0,0,0,4.067-.814,7.818,7.818,0,0,0,3.739.807v1.062a7.442,7.442,0,0,0,.143,1.446,3.61,3.61,0,0,1-3.9,3.182c-2.7,0-4.067-1.659-4.067-4.928C-40.942,71.348-40.934,71.1-40.925,70.858Zm4.051,7.711a7.209,7.209,0,0,0,1.526-.175v.958c-.737,2.268-1.065,3.32-1.206,3.778-.145.113-.279.232-.417.353l-1.16-4.11v-.911A7.43,7.43,0,0,0-36.875,78.569Zm-8.838,8.037a7.647,7.647,0,0,1,.578-3.781c.935-1.617,3.637-2.145,5.229-2.266l1.342,4.753c-.043.07-.1.127-.143.2a5.372,5.372,0,0,0-.462,1.1Zm8.755-.065a6.735,6.735,0,0,1,2.056-2.1l7.324,7.83H-37.806C-37.731,88.469-37.255,87.044-36.958,86.541ZM-22.9,92.267l7.324-7.83a6.736,6.736,0,0,1,2.056,2.1c.3.5.772,1.928.847,5.726Zm11.59-5.661a5.372,5.372,0,0,0-.462-1.1c-.042-.071-.1-.128-.143-.2l1.341-4.748c1.579.124,4.29.637,5.225,2.252a7.637,7.637,0,0,1,.583,3.789Z" transform="translate(0 1.961)" fill="#fff"/><path d="M-29.785,58.416A1.015,1.015,0,0,0-28.771,57.4V53.123a1.016,1.016,0,0,0-1.015-1.015A1.016,1.016,0,0,0-30.8,53.123V57.4A1.015,1.015,0,0,0-29.785,58.416Z" transform="translate(4.544 0)" fill="#fff"/><path d="M-24.373,59.675a1.016,1.016,0,0,0,.713-.29l3.053-3.008a1.018,1.018,0,0,0,.011-1.436,1.019,1.019,0,0,0-1.436-.011l-3.053,3.008a1.015,1.015,0,0,0-.011,1.436A1.011,1.011,0,0,0-24.373,59.675Z" transform="translate(5.996 0.679)" fill="#fff"/><path d="M-35.264,59.385a1.016,1.016,0,0,0,.713.29,1.011,1.011,0,0,0,.723-.3,1.015,1.015,0,0,0-.011-1.436l-3.053-3.008a1.017,1.017,0,0,0-1.436.011,1.018,1.018,0,0,0,.011,1.436Z" transform="translate(2.447 0.679)" fill="#fff"/></g></g></svg>