<svg xmlns="http://www.w3.org/2000/svg" xmlns:xlink="http://www.w3.org/1999/xlink" width="80" height="80" viewBox="0 0 80 80"><defs><radialGradient id="a" cx="0.5" cy="0.5" r="0.682" gradientTransform="translate(-0.094 0.116) rotate(-12.139)" gradientUnits="objectBoundingBox"><stop offset="0" stop-color="#21387c"/><stop offset="1" stop-color="#15265a"/></radialGradient></defs><g transform="translate(-303 -1771)"><circle cx="40" cy="40" r="40" transform="translate(303 1771)" fill="url(#a)"/><g transform="translate(317 1781.754)"><g transform="translate(7 36.874)"><path d="M7,37.008H7A12.377,12.377,0,0,1,19.3,26H35.583a12.377,12.377,0,0,1,12.3,11.01h0" transform="translate(-7 -25.998)" fill="none" stroke="#fff" stroke-linecap="round" stroke-linejoin="round" stroke-width="1.6"/></g><rect width="20.323" height="23.587" rx="10" transform="translate(17.281 7)" stroke-width="1.6" stroke="#fff" stroke-linecap="round" stroke-linejoin="round" fill="none"/><path d="M28.96,26,22.391,40.749,15.823,26" transform="translate(5.051 10.876)" fill="none" stroke="#fff" stroke-linecap="round" stroke-linejoin="round" stroke-width="1.6"/><path d="M11.408,26.779h0A26.5,26.5,0,0,0,20,36.855L24.919,40.3" transform="translate(2.523 11.323)" fill="none" stroke="#fff" stroke-linecap="round" stroke-linejoin="round" stroke-width="1.6"/><path d="M33.511,26.779h0a26.5,26.5,0,0,1-8.6,10.076L20,40.3" transform="translate(7.442 11.323)" fill="none" stroke="#fff" stroke-linecap="round" stroke-linejoin="round" stroke-width="1.6"/><path d="M7,33H7a57.723,57.723,0,0,0,40.884,0h0" transform="translate(0 14.884)" fill="none" stroke="#fff" stroke-linecap="round" stroke-linejoin="round" stroke-width="1.6"/><path d="M13.538,14.871c6.161,0,10.749-.588,12.849-3.871" transform="translate(3.743 2.29)" fill="none" stroke="#fff" stroke-linecap="round" stroke-linejoin="round" stroke-width="1.6"/><path d="M29.688,14.312c-4.131,0-7.219-.627-8.862-2.335" transform="translate(7.915 2.849)" fill="none" stroke="#fff" stroke-linecap="round" stroke-linejoin="round" stroke-width="1.6"/></g></g></svg>