<svg xmlns="http://www.w3.org/2000/svg" width="35.583" height="31.107" viewBox="0 0 35.583 31.107"><g transform="translate(-0.594 -2.894)"><path d="M9.391,19.043c1.012,1.585,1.922,2.74,1.654,4.593-.258,1.794-.152,3.679-1.04,5.328-.63,1.17.408,1.22.934,1.672,2.076,1.794,4.743,1.07,7.1,1.636,1.773.425,4.378,2.142,4.872-1.746.089-.7,1.172-.9,2-.925a9.919,9.919,0,0,1,3.816.689c1.756.63,4.714-.626,5.427-2.234.3-.679-.021-.779-.573-1.056-1.467-.729-1.379-1.888-1.019-3.368.308-1.289.553-3.168-1.058-3.761-1.479-.544-.539-1.072-.206-1.392a17.693,17.693,0,0,0,3.489-5.425c.976-2.056-.019-2.1-1.228-2.447A38.714,38.714,0,0,1,21.24,4.5c-1.425-1.062-2.651-.724-2.755,1.04-.1,1.722-.784,2.319-2.356,2.332a1.53,1.53,0,0,0-1.518.835c-.908,2.069-2.187,1.136-3.3.331-.585-.425-1-1.016-1.768-.489-.846.574-.327,1.151,0,1.773.942,1.8.507,2.1-1.54,1.984a2.542,2.542,0,0,1-1.1-.366,2.152,2.152,0,0,0-1.684-.467c-.587.143-1.167.333-1.76.418-.8.115-1.884-.28-1.862,1.134a2.166,2.166,0,0,0,1.771,2.439C5.684,16.047,7.785,16.525,9.391,19.043Z" transform="translate(0)" fill="none" stroke="#fff" stroke-linecap="round" stroke-linejoin="round" stroke-width="2"/></g></svg>