<svg xmlns="http://www.w3.org/2000/svg" xmlns:xlink="http://www.w3.org/1999/xlink" width="80" height="80" viewBox="0 0 80 80"><defs><radialGradient id="a" cx="0.5" cy="0.5" r="0.682" gradientTransform="translate(-0.094 0.116) rotate(-12.139)" gradientUnits="objectBoundingBox"><stop offset="0" stop-color="#21387c"/><stop offset="1" stop-color="#15265a"/></radialGradient></defs><g transform="translate(-303 -1771)"><circle cx="40" cy="40" r="40" transform="translate(303 1771)" fill="url(#a)"/><g transform="translate(313.319 1734.28)"><path d="M48.549,56.063a1.1,1.1,0,0,0-.1-.136,1.255,1.255,0,0,0-.143-.2,1.191,1.191,0,0,0-.2-.143,1.174,1.174,0,0,0-.137-.1c-.184-.085-4.641-2.051-13.606.317-.025.006-.041.023-.064.031-.039.013-.08.016-.117.032a28.614,28.614,0,0,0-9.792,7.228c-8.19.285-16.722,7.05-19.37,9.7a1.167,1.167,0,0,0,.825,1.992c2.64,0,5.9,1.731,7.378,2.608L11.69,81.2a3.039,3.039,0,0,0,.67,3.286l7.193,7.193a3.039,3.039,0,0,0,2.147.89,3.077,3.077,0,0,0,1.138-.22l3.807-1.537c.877,1.48,2.608,4.738,2.608,7.378a1.166,1.166,0,0,0,.721,1.079,1.153,1.153,0,0,0,.445.088,1.166,1.166,0,0,0,.826-.342c2.646-2.646,9.411-11.179,9.7-19.367a28.617,28.617,0,0,0,7.228-9.794c.015-.034.016-.069.028-.1s.028-.051.036-.079C50.6,60.705,48.633,56.248,48.549,56.063Zm-1.979,1.4c.323,1.1.962,4.281-.127,9.594l-9.465-9.465C42.293,56.5,45.472,57.144,46.569,57.465Zm-24.334,8.2-7.819,9.715A23.7,23.7,0,0,0,8.482,72.81C11.525,70.267,16.851,66.65,22.235,65.667Zm-.273,24.512a.7.7,0,0,1-.759-.153l-7.193-7.193a.7.7,0,0,1-.153-.759L15.1,78.991l9.946,9.946Zm9.264,5.376a23.7,23.7,0,0,0-2.572-5.935l9.716-7.82C37.387,87.184,33.769,92.51,31.226,95.554ZM38.7,78.54,27.2,87.792,16.245,76.834,25.461,65.38a27.29,27.29,0,0,1,8.956-7.044L45.7,69.619A27.2,27.2,0,0,1,38.7,78.54Z" fill="#fff"/><path d="M21.385,63.536a6.415,6.415,0,1,0,9.073,0A6.425,6.425,0,0,0,21.385,63.536Zm7.422,1.651A4.091,4.091,0,1,1,25.922,64,4.088,4.088,0,0,1,28.807,65.187Z" transform="translate(6.815 3.226)" fill="#fff"/><path d="M13.335,78.923a1.168,1.168,0,0,0-1.651,0L6.713,83.894a1.167,1.167,0,0,0,1.651,1.651l4.971-4.971A1.168,1.168,0,0,0,13.335,78.923Z" transform="translate(0.777 11.002)" fill="#fff"/><path d="M13.528,81.32l-3.221,3.221a1.167,1.167,0,0,0,1.651,1.651l3.221-3.221a1.167,1.167,0,0,0-1.651-1.651Z" transform="translate(2.428 12.103)" fill="#fff"/><path d="M7.539,79.993a1.161,1.161,0,0,0,.825-.342l1.473-1.473a1.167,1.167,0,0,0-1.651-1.651L6.713,78a1.167,1.167,0,0,0,.826,1.992Z" transform="translate(0.777 9.901)" fill="#fff"/></g></g></svg>