<?xml version="1.0" encoding="utf-8"?>
<!-- Generator: Adobe Illustrator 24.1.2, SVG Export Plug-In . SVG Version: 6.00 Build 0)  -->
<svg version="1.1" id="Calque_1" xmlns="http://www.w3.org/2000/svg" xmlns:xlink="http://www.w3.org/1999/xlink" x="0px" y="0px"
	 viewBox="0 0 100 100" style="enable-background:new 0 0 100 100;" xml:space="preserve">
<style type="text/css">
	.st0{fill:none;stroke:#000000;stroke-miterlimit:10;}
	.st1{fill:#FFFFFF;stroke:#000000;stroke-miterlimit:10;}
</style>
<g>
	<g id="_x32_30_x2C__Drink_x2C__Food_x2C__Park_x2C__Stand_x2C_">
		<g>
			<g>
				<polygon points="63.89,55.03 66.37,55.03 66.37,52.91 63.89,52.91 61.06,52.91 58.94,52.91 51.85,52.91 49.73,52.91 46.9,52.91 
					44.77,52.91 41.94,52.91 39.82,52.91 36.98,52.91 34.5,52.91 34.5,55.03 36.98,55.03 				"/>
				<rect x="37.34" y="36.62" width="2.12" height="15.58"/>
				<rect x="61.42" y="36.62" width="2.12" height="15.58"/>
				<polygon class="st0" points="39.82,35.91 61.06,35.91 63.89,35.91 66.37,35.91 66.37,33.78 34.5,33.78 34.5,35.91 36.98,35.91 
									"/>
			</g>
		</g>
	</g>
	<g id="Layer_1_19_">
	</g>
</g>
<path id="rect4546_1_" class="st1" d="M43.35,31.92l-0.92,0.55V35l0.92,0.55h0.6v7.4h-2.03L41,43.73v7.53h0.94
	c0.06,0.76,0.72,1.37,1.53,1.37c0.81,0,1.48-0.6,1.53-1.37h7.75c0.06,0.76,0.72,1.37,1.54,1.37c0.81,0,1.48-0.6,1.53-1.37h0.68
	l1.03-0.9v-1.58l-1.03-0.89H55.1v-0.55v-0.32v-5.86h-7.8v5.86v0.32v0.55h-1.36V31.92h-1.77v0L43.35,31.92L43.35,31.92z M49.79,42.25
	h2.82v0.67h-2.82V42.25z M41.49,44.29h0.87v0.99h-0.87V44.29z M41.49,45.63h0.87v0.52h-0.87V45.63z M49.69,47.34h3l0.15,0.55h-3.3
	L49.69,47.34z M47.68,49.24h0.72l-1.44,1.51h-0.72L47.68,49.24L47.68,49.24z M49.12,49.24h0.72l-1.44,1.51h-0.72L49.12,49.24
	L49.12,49.24z M50.56,49.24h0.72l-1.44,1.51h-0.72L50.56,49.24z M43.48,50.64c0.3,0,0.54,0.23,0.54,0.51c0,0.29-0.24,0.52-0.54,0.52
	c-0.3,0-0.54-0.23-0.54-0.52C42.94,50.87,43.18,50.64,43.48,50.64z M54.3,50.64c0.3,0,0.54,0.23,0.54,0.51
	c0,0.29-0.24,0.52-0.54,0.52c-0.3,0-0.54-0.23-0.54-0.52C53.76,50.87,54,50.64,54.3,50.64z"/>
</svg>
