<?xml version="1.0" encoding="utf-8"?>
<!-- Generator: Adobe Illustrator 24.1.2, SVG Export Plug-In . SVG Version: 6.00 Build 0)  -->
<svg version="1.1" id="Calque_1" xmlns="http://www.w3.org/2000/svg" xmlns:xlink="http://www.w3.org/1999/xlink" x="0px" y="0px"
	 viewBox="0 0 100 100" style="enable-background:new 0 0 100 100;" xml:space="preserve">
<style type="text/css">
	.st0{fill:#FCFCFC;stroke:#000000;stroke-width:2;stroke-linecap:round;stroke-linejoin:round;stroke-miterlimit:10;}
	.st1{fill:#FFFFFF;stroke:#000000;stroke-width:2;stroke-linecap:round;stroke-linejoin:round;stroke-miterlimit:10;}
</style>
<path class="st0" d="M68.82,44.07c-1.62-3.03-1.32-6.57,0.47-9.24l-2.15-4.04l-13.95,7.44l1.84,3.45l0,0l-1.84-3.45L24.54,53.5
	l2.12,3.97c0.06,0.01,0.11,0.04,0.16,0.05c3.18,0.04,6.24,1.76,7.84,4.76c1.6,3,1.32,6.5-0.42,9.16c-0.02,0.05-0.03,0.11-0.05,0.16
	l2.12,3.97l28.65-15.27l-1.84-3.45l0,0l1.84,3.45l13.95-7.44l-2.15-4.04C73.54,48.82,70.44,47.1,68.82,44.07z M61.65,54.1
	L61.65,54.1l-1.84-3.45l0,0L61.65,54.1z M58.34,47.89L58.34,47.89l-1.84-3.45l0,0L58.34,47.89z"/>
<g>
	<path class="st1" d="M59.74,34.73c-1.27-2.14-1.58-4.7-0.91-7.05l-3.29-3.18L30.6,50.27L59.74,34.73z"/>
	<path class="st1" d="M67.8,39.14c-0.13,1.65,0.18,3.36,1.02,4.93c0.31,0.58,0.68,1.09,1.09,1.57l3.62-3.74l-3.29-3.18
		C69.45,38.97,68.63,39.11,67.8,39.14z"/>
	<path class="st1" d="M35.69,66.19c-0.05-1.33-0.37-2.66-1.04-3.91c-1.6-3-4.66-4.72-7.84-4.76c-0.05-0.01-0.11-0.04-0.16-0.05
		l-1.08-2.02l-3.61,3.73l3.23,3.13c0.06,0,0.11,0,0.17,0c3.04-0.94,6.48-0.24,8.92,2.13C34.85,64.97,35.3,65.56,35.69,66.19z"/>
</g>
</svg>
