<svg xmlns="http://www.w3.org/2000/svg" width="16.3" height="13.2" viewBox="0 0 16.3 13.2"><path d="M14.6,3.3v.4a9.47,9.47,0,0,1-9.5,9.5A9.829,9.829,0,0,1,0,11.7H.8a6.359,6.359,0,0,0,4.1-1.4A3.24,3.24,0,0,1,1.8,8c.2,0,.4.1.6.1A2.769,2.769,0,0,0,3.3,8,3.338,3.338,0,0,1,.7,4.7h0a2.822,2.822,0,0,0,1.5.4A3.46,3.46,0,0,1,.7,2.3,3.371,3.371,0,0,1,1.2.6,9.126,9.126,0,0,0,8,4.1c0-.2-.1-.5-.1-.8A3.351,3.351,0,0,1,11.3,0a3.043,3.043,0,0,1,2.4,1.1A4.851,4.851,0,0,0,15.8.3a2.979,2.979,0,0,1-1.5,1.8,11.7,11.7,0,0,0,2-.5A9.118,9.118,0,0,1,14.6,3.3Z" fill="#f8f7f8" fill-rule="evenodd"/></svg>