<svg xmlns="http://www.w3.org/2000/svg" width="38.104" height="27.985" viewBox="0 0 38.104 27.985"><g transform="translate(0.05 0.05)"><g transform="translate(3.954 0.8)"><path d="M8.4,11" transform="translate(-1.566 2.405)" fill="none" stroke="#5ead6f" stroke-linecap="round" stroke-linejoin="round" stroke-miterlimit="10" stroke-width="1.7"/><path d="M5.8.8H28.536c1.84,0,3.417,2.891,3.417,6.571s-1.577,6.571-3.417,6.571H5.8" transform="translate(-2.383 -0.8)" fill="none" stroke="#5ead6f" stroke-linecap="round" stroke-linejoin="round" stroke-miterlimit="10" stroke-width="1.7"/><path d="M8.4,10.8" transform="translate(-1.566 2.342)" fill="none" stroke="#5ead6f" stroke-linecap="round" stroke-linejoin="round" stroke-miterlimit="10" stroke-width="1.7"/><ellipse cx="3.417" cy="6.571" rx="3.417" ry="6.571" fill="none" stroke="#5ead6f" stroke-linecap="round" stroke-linejoin="round" stroke-miterlimit="10" stroke-width="1.7"/><line x2="7.097" transform="translate(6.834 4.074)" stroke-width="1.7" stroke="#5ead6f" stroke-linecap="round" stroke-linejoin="round" stroke-miterlimit="10" fill="none"/><line x2="4.337" transform="translate(25.102 6.046)" stroke-width="1.7" stroke="#5ead6f" stroke-linecap="round" stroke-linejoin="round" stroke-miterlimit="10" fill="none"/><line x2="7.097" transform="translate(13.931 9.594)" stroke-width="1.7" stroke="#5ead6f" stroke-linecap="round" stroke-linejoin="round" stroke-miterlimit="10" fill="none"/></g><g transform="translate(0.8 13.811)"><path d="M11.2,21" transform="translate(2.468 -7.463)" fill="none" stroke="#5ead6f" stroke-linecap="round" stroke-linejoin="round" stroke-miterlimit="10" stroke-width="1.7"/><path d="M10.234,10.8H32.97c1.84,0,3.417,2.891,3.417,6.571s-1.577,6.571-3.417,6.571H3.4" transform="translate(0.017 -10.669)" fill="none" stroke="#5ead6f" stroke-linecap="round" stroke-linejoin="round" stroke-miterlimit="10" stroke-width="1.7"/><path d="M11.2,20.8" transform="translate(2.468 -7.526)" fill="none" stroke="#5ead6f" stroke-linecap="round" stroke-linejoin="round" stroke-miterlimit="10" stroke-width="1.7"/><ellipse cx="3.417" cy="6.571" rx="3.417" ry="6.571" transform="translate(6.834)" stroke-width="1.7" stroke="#5ead6f" stroke-linecap="round" stroke-linejoin="round" stroke-miterlimit="10" fill="none"/><ellipse cx="3.417" cy="6.571" rx="3.417" ry="6.571" fill="none" stroke="#5ead6f" stroke-linecap="round" stroke-linejoin="round" stroke-miterlimit="10" stroke-width="1.7"/><line x2="7.097" transform="translate(13.668 4.206)" stroke-width="1.7" stroke="#5ead6f" stroke-linecap="round" stroke-linejoin="round" stroke-miterlimit="10" fill="none"/><line x2="4.337" transform="translate(31.936 6.177)" stroke-width="1.7" stroke="#5ead6f" stroke-linecap="round" stroke-linejoin="round" stroke-miterlimit="10" fill="none"/><line x2="7.097" transform="translate(20.765 9.725)" stroke-width="1.7" stroke="#5ead6f" stroke-linecap="round" stroke-linejoin="round" stroke-miterlimit="10" fill="none"/></g></g></svg>