<svg xmlns="http://www.w3.org/2000/svg" width="19.075" height="13.421" viewBox="0 0 19.075 13.421"><g transform="translate(40)"><path d="M18.871,2.861A4.615,4.615,0,0,0,18.122.954,3.016,3.016,0,0,0,16.214.136C13.557,0,9.538,0,9.538,0h0S5.518,0,2.861.2a2.671,2.671,0,0,0-1.908.818A4.145,4.145,0,0,0,.2,2.861,27.769,27.769,0,0,0,0,6V7.426a25.82,25.82,0,0,0,.2,3.066A4.615,4.615,0,0,0,.954,12.4a3.323,3.323,0,0,0,2.112.818c1.5.136,6.472.2,6.472.2s4.019,0,6.676-.2a3.016,3.016,0,0,0,1.908-.818,4.308,4.308,0,0,0,.749-1.908,27.382,27.382,0,0,0,.2-3.066V6A27.769,27.769,0,0,0,18.871,2.861ZM7.562,9.2V3.815L12.74,6.472Z" transform="translate(-40)" fill="#f8f7f8"/></g></svg>